<svg class="main-svg" xmlns="http://www.w3.org/2000/svg" xmlns:xlink="http://www.w3.org/1999/xlink" width="1100" height="500" style="" viewBox="0 0 1100 500"><rect x="0" y="0" width="1100" height="500" style="fill: rgb(255, 255, 255); fill-opacity: 1;"/><defs id="defs-3ad37f"><g class="clips"><clipPath id="clip3ad37fxyplot" class="plotclip"><rect width="803" height="320"/></clipPath><clipPath class="axesclip" id="clip3ad37fx"><rect x="80" y="0" width="803" height="500"/></clipPath><clipPath class="axesclip" id="clip3ad37fy"><rect x="0" y="100" width="1100" height="320"/></clipPath><clipPath class="axesclip" id="clip3ad37fxy"><rect x="80" y="100" width="803" height="320"/></clipPath></g><g class="gradients"/><g class="patterns"/></defs><g class="bglayer"><rect class="bg" x="80" y="100" width="803" height="320" style="fill: rgb(237, 237, 237); fill-opacity: 1; stroke-width: 0;"/></g><g class="layer-below"><g class="imagelayer"/><g class="shapelayer"/></g><g class="cartesianlayer"><g class="subplot xy"><g class="layer-subplot"><g class="shapelayer"/><g class="imagelayer"/></g><g class="minor-gridlayer"><g class="x"/><g class="y"/></g><g class="gridlayer"><g class="x"><path class="xgrid crisp" transform="translate(132.19,0)" d="M0,100v320" style="stroke: rgb(169, 169, 169); stroke-opacity: 1; stroke-width: 1px;"/><path class="xgrid crisp" transform="translate(236,0)" d="M0,100v320" style="stroke: rgb(169, 169, 169); stroke-opacity: 1; stroke-width: 1px;"/><path class="xgrid crisp" transform="translate(339.54,0)" d="M0,100v320" style="stroke: rgb(169, 169, 169); stroke-opacity: 1; stroke-width: 1px;"/><path class="xgrid crisp" transform="translate(443.07,0)" d="M0,100v320" style="stroke: rgb(169, 169, 169); stroke-opacity: 1; stroke-width: 1px;"/><path class="xgrid crisp" transform="translate(546.6,0)" d="M0,100v320" style="stroke: rgb(169, 169, 169); stroke-opacity: 1; stroke-width: 1px;"/><path class="xgrid crisp" transform="translate(650.41,0)" d="M0,100v320" style="stroke: rgb(169, 169, 169); stroke-opacity: 1; stroke-width: 1px;"/><path class="xgrid crisp" transform="translate(753.94,0)" d="M0,100v320" style="stroke: rgb(169, 169, 169); stroke-opacity: 1; stroke-width: 1px;"/><path class="xgrid crisp" transform="translate(857.47,0)" d="M0,100v320" style="stroke: rgb(169, 169, 169); stroke-opacity: 1; stroke-width: 1px;"/></g><g class="y"><path class="ygrid crisp" transform="translate(0,357.54)" d="M80,0h803" style="stroke: rgb(169, 169, 169); stroke-opacity: 1; stroke-width: 1px;"/><path class="ygrid crisp" transform="translate(0,311.06)" d="M80,0h803" style="stroke: rgb(169, 169, 169); stroke-opacity: 1; stroke-width: 1px;"/><path class="ygrid crisp" transform="translate(0,264.59000000000003)" d="M80,0h803" style="stroke: rgb(169, 169, 169); stroke-opacity: 1; stroke-width: 1px;"/><path class="ygrid crisp" transform="translate(0,218.11)" d="M80,0h803" style="stroke: rgb(169, 169, 169); stroke-opacity: 1; stroke-width: 1px;"/><path class="ygrid crisp" transform="translate(0,171.63)" d="M80,0h803" style="stroke: rgb(169, 169, 169); stroke-opacity: 1; stroke-width: 1px;"/><path class="ygrid crisp" transform="translate(0,125.15)" d="M80,0h803" style="stroke: rgb(169, 169, 169); stroke-opacity: 1; stroke-width: 1px;"/></g></g><g class="zerolinelayer"><path class="yzl zl crisp" transform="translate(0,404.02)" d="M80,0h803" style="stroke: rgb(255, 255, 255); stroke-opacity: 1; stroke-width: 1px;"/></g><path class="xlines-below"/><path class="ylines-below"/><g class="overlines-below"/><g class="xaxislayer-below"/><g class="yaxislayer-below"/><g class="overaxes-below"/><g class="plot" transform="translate(80,100)" clip-path="url(#clip3ad37fxyplot)"><g class="scatterlayer mlayer"><g class="trace scatter tracecbb78e" style="stroke-miterlimit: 2; opacity: 1;"><g class="fills"/><g class="errorbars"/><g class="lines"><path class="js-line" d="M0,302.76L8.79,271L17.59,283.15L26.1,289.68L34.89,298.38L43.4,287.04L52.19,270.98L60.98,274.01L69.21,266.39L86.51,261.9L95.3,265.21L103.81,224.41L112.61,263.95L121.4,286.51L129.91,281.22L138.7,287.7L147.21,269.96L156,252.64L164.8,246.53L172.74,177.8L181.53,174.87L190.04,289.85L198.84,272.98L207.34,267.81L216.14,241.76L224.93,287.45L233.44,252.08L242.23,303.69L250.74,303.99L259.54,295.8L268.33,269.53L276.27,283.48L285.06,291.72L293.57,240.3L302.37,281.51L310.88,303.87L319.67,297.86L328.46,283.88L336.97,299.37L345.76,292.01L354.27,295.57L363.07,292.51L371.86,295.72L379.8,294.09L388.59,272.3L397.1,292.07L405.9,278.61L414.41,293.55L423.2,277.56L431.99,273.47L440.5,282.7L449.29,291.88L457.8,287.22L466.6,285.4L475.39,292.23L483.62,298.24L492.41,288L500.92,290.11L509.71,288.05L518.22,289.29L527.01,283.79L544.32,283.62L553.11,281.78L561.62,263.51L570.41,263.32L579.2,251.61L587.15,263.03L595.94,276.89L604.45,277.58L613.24,274.31L621.75,247.68L630.54,277.98L639.34,274.3L647.85,273.77L656.64,278.64L665.15,284.96L673.94,282.23L682.73,272.36L690.68,268.01L699.47,278.45L707.98,274.6L716.77,272.2L725.28,271.21L734.07,266.09L742.87,275.4L751.38,276.59L760.17,274.76L768.68,272.81L777.47,273.11L786.26,275.72L794.21,281.61L803,283.15" style="vector-effect: none; fill: none; stroke: rgb(46, 46, 46); stroke-opacity: 1; stroke-dasharray: 3px, 3px; stroke-width: 3px; opacity: 1;"/></g><g class="points"/><g class="text"/></g><g class="trace scatter tracecee6b1" style="stroke-miterlimit: 2; opacity: 1;"><g class="fills"/><g class="errorbars"/><g class="lines"><path class="js-line" d="M0,297.15L8.79,97.19L17.59,235.6L26.1,241.11L34.89,275.74L43.4,247.07L52.19,197.19L60.98,199.48L69.21,166.86L86.51,168.05L95.3,165.51L103.81,16L112.61,145.98L121.4,256.1L129.91,242.81L138.7,251.43L147.21,233.62L156,228.72L164.8,233.83L172.74,171.44L181.53,113.22L190.04,260.49L198.84,195.76L207.34,197.78L216.14,118.17L224.93,247.79L233.44,155.2L242.23,302.13L250.74,303.83L259.54,280.19L268.33,179.26L276.27,250.16L285.06,271.62L293.57,115.06L302.37,219.91L310.88,301.99L319.67,285.82L328.46,246.56L336.97,280.35L345.76,240.6L354.27,266.27L363.07,266.04L371.86,250.45L388.59,224.79L397.1,266.44L405.9,241.58L414.41,283.5L423.2,230.67L431.99,211.69L440.5,263.85L449.29,266.68L457.8,259.5L466.6,271.89L475.39,271.69L483.62,286.57L492.41,256.49L500.92,256.96L509.71,258.67L518.22,265.85L527.01,248.54L535.81,241.7L544.32,252.44L553.11,251.85L561.62,212.52L570.41,194.88L579.2,191.4L587.15,208.4L595.94,234.84L604.45,250.8L613.24,244.4L621.75,219.18L630.54,255.88L639.34,223.39L647.85,236.77L656.64,255.21L665.15,251.49L673.94,259.25L682.73,243.09L690.68,237.83L699.47,251.25L707.98,252.06L716.77,257.31L725.28,253.73L734.07,243.32L742.87,247.94L751.38,246.81L760.17,246.73L768.68,247L777.47,248.91L786.26,254.53L794.21,263.33L803,268" style="vector-effect: none; fill: none; stroke: rgb(252, 3, 3); stroke-opacity: 1; stroke-dasharray: 3px, 3px; stroke-width: 3px; opacity: 1;"/></g><g class="points"/><g class="text"/></g><g class="trace scatter trace1ef5c5" style="stroke-miterlimit: 2; opacity: 1;"><g class="fills"/><g class="errorbars"/><g class="lines"><path class="js-line" d="M0,303.42L8.79,292.57L17.59,295.04L26.1,298.62L34.89,301.22L43.4,295.28L52.19,285L60.98,289.79L69.21,285.97L86.51,285.31L95.3,289.78L103.81,266.34L112.61,288.94L121.4,295.75L129.91,295.17L138.7,298.58L147.21,299.63L164.8,299.29L172.74,294.02L181.53,290.82L190.04,300.29L198.84,298.44L207.34,290.64L216.14,294.04L224.93,301.34L233.44,293.23L242.23,303.97L250.74,304L259.54,302.7L268.33,297.85L276.27,296.3L285.06,299.74L293.57,296.95L302.37,299.13L310.88,304L319.67,301.68L328.46,297.67L336.97,303.06L345.76,300.19L354.27,301.79L363.07,300.45L379.8,301.47L388.59,295.11L397.1,301.68L405.9,297.18L414.41,302.02L423.2,299.5L431.99,297.1L440.5,300.78L449.29,301.78L457.8,300.97L466.6,299.1L475.39,301.04L483.62,302.65L492.41,299.6L500.92,300.37L509.71,299.94L535.81,299.41L544.32,300.1L553.11,299.48L561.62,300.08L570.41,298.77L579.2,296.39L587.15,298.51L595.94,298.92L613.24,300.13L621.75,296.64L630.54,299.91L639.34,297.86L656.64,300.04L665.15,300.87L690.68,300.84L699.47,300.86L707.98,302.01L716.77,301.54L734.07,300.62L742.87,301.08L751.38,300.46L760.17,300.83L768.68,300.37L777.47,300.9L794.21,301.77L803,301.98" style="vector-effect: none; fill: none; stroke: rgb(211, 211, 211); stroke-opacity: 1; stroke-dasharray: 3px, 3px; stroke-width: 3px; opacity: 1;"/></g><g class="points"/><g class="text"/></g></g></g><g class="overplot"/><path class="xlines-above crisp" d="M79,420.5H883" style="fill: none; stroke-width: 1px; stroke: rgb(0, 0, 0); stroke-opacity: 1;"/><path class="ylines-above crisp" d="M79.5,100V420" style="fill: none; stroke-width: 1px; stroke: rgb(0, 0, 0); stroke-opacity: 1;"/><g class="overlines-above"/><g class="xaxislayer-above"><path class="xtick ticks crisp" d="M0,421v5" transform="translate(132.19,0)" style="stroke: rgb(51, 51, 51); stroke-opacity: 1; stroke-width: 1px;"/><path class="xtick ticks crisp" d="M0,421v5" transform="translate(236,0)" style="stroke: rgb(51, 51, 51); stroke-opacity: 1; stroke-width: 1px;"/><path class="xtick ticks crisp" d="M0,421v5" transform="translate(339.54,0)" style="stroke: rgb(51, 51, 51); stroke-opacity: 1; stroke-width: 1px;"/><path class="xtick ticks crisp" d="M0,421v5" transform="translate(443.07,0)" style="stroke: rgb(51, 51, 51); stroke-opacity: 1; stroke-width: 1px;"/><path class="xtick ticks crisp" d="M0,421v5" transform="translate(546.6,0)" style="stroke: rgb(51, 51, 51); stroke-opacity: 1; stroke-width: 1px;"/><path class="xtick ticks crisp" d="M0,421v5" transform="translate(650.41,0)" style="stroke: rgb(51, 51, 51); stroke-opacity: 1; stroke-width: 1px;"/><path class="xtick ticks crisp" d="M0,421v5" transform="translate(753.94,0)" style="stroke: rgb(51, 51, 51); stroke-opacity: 1; stroke-width: 1px;"/><path class="xtick ticks crisp" d="M0,421v5" transform="translate(857.47,0)" style="stroke: rgb(51, 51, 51); stroke-opacity: 1; stroke-width: 1px;"/><g class="xtick"><text text-anchor="middle" x="0" y="440.4" transform="translate(132.19,0)" style="font-family: 'Franklin Gothic'; font-size: 12px; fill: rgb(51, 51, 51); fill-opacity: 1; white-space: pre; opacity: 1;">2016</text></g><g class="xtick"><text text-anchor="middle" x="0" y="440.4" style="font-family: 'Franklin Gothic'; font-size: 12px; fill: rgb(51, 51, 51); fill-opacity: 1; white-space: pre; opacity: 1;" transform="translate(236,0)">2017</text></g><g class="xtick"><text text-anchor="middle" x="0" y="440.4" style="font-family: 'Franklin Gothic'; font-size: 12px; fill: rgb(51, 51, 51); fill-opacity: 1; white-space: pre; opacity: 1;" transform="translate(339.54,0)">2018</text></g><g class="xtick"><text text-anchor="middle" x="0" y="440.4" style="font-family: 'Franklin Gothic'; font-size: 12px; fill: rgb(51, 51, 51); fill-opacity: 1; white-space: pre; opacity: 1;" transform="translate(443.07,0)">2019</text></g><g class="xtick"><text text-anchor="middle" x="0" y="440.4" style="font-family: 'Franklin Gothic'; font-size: 12px; fill: rgb(51, 51, 51); fill-opacity: 1; white-space: pre; opacity: 1;" transform="translate(546.6,0)">2020</text></g><g class="xtick"><text text-anchor="middle" x="0" y="440.4" style="font-family: 'Franklin Gothic'; font-size: 12px; fill: rgb(51, 51, 51); fill-opacity: 1; white-space: pre; opacity: 1;" transform="translate(650.41,0)">2021</text></g><g class="xtick"><text text-anchor="middle" x="0" y="440.4" style="font-family: 'Franklin Gothic'; font-size: 12px; fill: rgb(51, 51, 51); fill-opacity: 1; white-space: pre; opacity: 1;" transform="translate(753.94,0)">2022</text></g><g class="xtick"><text text-anchor="middle" x="0" y="440.4" style="font-family: 'Franklin Gothic'; font-size: 12px; fill: rgb(51, 51, 51); fill-opacity: 1; white-space: pre; opacity: 1;" transform="translate(857.47,0)">2023</text></g></g><g class="yaxislayer-above"><path class="ytick ticks crisp" d="M79,0h-5" transform="translate(0,404.02)" style="stroke: rgb(51, 51, 51); stroke-opacity: 1; stroke-width: 1px;"/><path class="ytick ticks crisp" d="M79,0h-5" transform="translate(0,357.54)" style="stroke: rgb(51, 51, 51); stroke-opacity: 1; stroke-width: 1px;"/><path class="ytick ticks crisp" d="M79,0h-5" transform="translate(0,311.06)" style="stroke: rgb(51, 51, 51); stroke-opacity: 1; stroke-width: 1px;"/><path class="ytick ticks crisp" d="M79,0h-5" transform="translate(0,264.59000000000003)" style="stroke: rgb(51, 51, 51); stroke-opacity: 1; stroke-width: 1px;"/><path class="ytick ticks crisp" d="M79,0h-5" transform="translate(0,218.11)" style="stroke: rgb(51, 51, 51); stroke-opacity: 1; stroke-width: 1px;"/><path class="ytick ticks crisp" d="M79,0h-5" transform="translate(0,171.63)" style="stroke: rgb(51, 51, 51); stroke-opacity: 1; stroke-width: 1px;"/><path class="ytick ticks crisp" d="M79,0h-5" transform="translate(0,125.15)" style="stroke: rgb(51, 51, 51); stroke-opacity: 1; stroke-width: 1px;"/><g class="ytick"><text text-anchor="end" x="71.6" y="4.199999999999999" transform="translate(0,404.02)" style="font-family: 'Franklin Gothic'; font-size: 12px; fill: rgb(51, 51, 51); fill-opacity: 1; white-space: pre; opacity: 1;">0</text></g><g class="ytick"><text text-anchor="end" x="71.6" y="4.199999999999999" style="font-family: 'Franklin Gothic'; font-size: 12px; fill: rgb(51, 51, 51); fill-opacity: 1; white-space: pre; opacity: 1;" transform="translate(0,357.54)">50k</text></g><g class="ytick"><text text-anchor="end" x="71.6" y="4.199999999999999" style="font-family: 'Franklin Gothic'; font-size: 12px; fill: rgb(51, 51, 51); fill-opacity: 1; white-space: pre; opacity: 1;" transform="translate(0,311.06)">100k</text></g><g class="ytick"><text text-anchor="end" x="71.6" y="4.199999999999999" style="font-family: 'Franklin Gothic'; font-size: 12px; fill: rgb(51, 51, 51); fill-opacity: 1; white-space: pre; opacity: 1;" transform="translate(0,264.59000000000003)">150k</text></g><g class="ytick"><text text-anchor="end" x="71.6" y="4.199999999999999" style="font-family: 'Franklin Gothic'; font-size: 12px; fill: rgb(51, 51, 51); fill-opacity: 1; white-space: pre; opacity: 1;" transform="translate(0,218.11)">200k</text></g><g class="ytick"><text text-anchor="end" x="71.6" y="4.199999999999999" style="font-family: 'Franklin Gothic'; font-size: 12px; fill: rgb(51, 51, 51); fill-opacity: 1; white-space: pre; opacity: 1;" transform="translate(0,171.63)">250k</text></g><g class="ytick"><text text-anchor="end" x="71.6" y="4.199999999999999" style="font-family: 'Franklin Gothic'; font-size: 12px; fill: rgb(51, 51, 51); fill-opacity: 1; white-space: pre; opacity: 1;" transform="translate(0,125.15)">300k</text></g></g><g class="overaxes-above"/></g></g><g class="polarlayer"/><g class="smithlayer"/><g class="ternarylayer"/><g class="geolayer"/><g class="funnelarealayer"/><g class="pielayer"/><g class="iciclelayer"/><g class="treemaplayer"/><g class="sunburstlayer"/><g class="glimages"/><defs id="topdefs-3ad37f"><g class="clips"/><clipPath id="legend3ad37f"><rect width="189" height="67" x="0" y="0"/></clipPath></defs><g class="layer-above"><g class="imagelayer"/><g class="shapelayer"/></g><g class="infolayer"><g class="legend" pointer-events="all" transform="translate(899.0600000000001,100)"><rect class="bg" shape-rendering="crispEdges" width="189" height="67" x="0" y="0" style="stroke: rgb(68, 68, 68); stroke-opacity: 1; fill: rgb(255, 255, 255); fill-opacity: 1; stroke-width: 0px;"/><g class="scrollbox" transform="" clip-path="url(#legend3ad37f)"><g class="groups"><g class="traces" transform="translate(0,14.5)" style="opacity: 1;"><text class="legendtext" text-anchor="start" x="40" y="4.680000000000001" style="font-family: 'Franklin Gothic'; font-size: 12px; fill: rgb(51, 51, 51); fill-opacity: 1; white-space: pre;">Likes change per time</text><g class="layers" style="opacity: 1;"><g class="legendfill"/><g class="legendlines"><path class="js-line" d="M5,0h30" style="fill: none; stroke: rgb(46, 46, 46); stroke-opacity: 1; stroke-dasharray: 3px, 3px; stroke-width: 3px;"/></g><g class="legendsymbols"><g class="legendpoints"/></g></g><rect class="legendtoggle" x="0" y="-9.5" width="183.53125" height="19" style="fill: rgb(0, 0, 0); fill-opacity: 0;"/></g><g class="traces" transform="translate(0,33.5)" style="opacity: 1;"><text class="legendtext" text-anchor="start" x="40" y="4.680000000000001" style="font-family: 'Franklin Gothic'; font-size: 12px; fill: rgb(51, 51, 51); fill-opacity: 1; white-space: pre;">Views change per time</text><g class="layers" style="opacity: 1;"><g class="legendfill"/><g class="legendlines"><path class="js-line" d="M5,0h30" style="fill: none; stroke: rgb(252, 3, 3); stroke-opacity: 1; stroke-dasharray: 3px, 3px; stroke-width: 3px;"/></g><g class="legendsymbols"><g class="legendpoints"/></g></g><rect class="legendtoggle" x="0" y="-9.5" width="183.53125" height="19" style="fill: rgb(0, 0, 0); fill-opacity: 0;"/></g><g class="traces" transform="translate(0,52.5)" style="opacity: 1;"><text class="legendtext" text-anchor="start" x="40" y="4.680000000000001" style="font-family: 'Franklin Gothic'; font-size: 12px; fill: rgb(51, 51, 51); fill-opacity: 1; white-space: pre;">Comments change per time</text><g class="layers" style="opacity: 1;"><g class="legendfill"/><g class="legendlines"><path class="js-line" d="M5,0h30" style="fill: none; stroke: rgb(211, 211, 211); stroke-opacity: 1; stroke-dasharray: 3px, 3px; stroke-width: 3px;"/></g><g class="legendsymbols"><g class="legendpoints"/></g></g><rect class="legendtoggle" x="0" y="-9.5" width="183.53125" height="19" style="fill: rgb(0, 0, 0); fill-opacity: 0;"/></g></g></g><rect class="scrollbar" rx="20" ry="3" width="0" height="0" x="0" y="0" style="fill: rgb(128, 139, 164); fill-opacity: 1;"/></g><g class="g-gtitle"><text class="gtitle" x="550" y="50" text-anchor="middle" dy="0em" style="font-family: 'Franklin Gothic'; font-size: 17px; fill: rgb(51, 51, 51); opacity: 1; font-weight: normal; white-space: pre;"><tspan class="line" dy="0em" x="550" y="50"><tspan style=" fill: red">Change</tspan> in likes and views per time</tspan><tspan class="line" dy="1.3em" x="550" y="50">​<tspan style="font-size:70%" dy="0.3em">*like counts are scaled by 10 to be readable &amp; comments are scaled by 20</tspan><tspan dy="-0.21em">​</tspan></tspan></text></g><g class="g-xtitle"/><g class="g-ytitle"/></g></svg>