<svg class="main-svg" xmlns="http://www.w3.org/2000/svg" xmlns:xlink="http://www.w3.org/1999/xlink" width="700" height="500" style="" viewBox="0 0 700 500"><rect x="0" y="0" width="700" height="500" style="fill: rgb(255, 255, 255); fill-opacity: 1;"/><defs id="defs-86d4e4"><g class="clips"><clipPath id="clip86d4e4xyplot" class="plotclip"><rect width="540" height="309"/></clipPath><clipPath class="axesclip" id="clip86d4e4x"><rect x="80" y="0" width="540" height="500"/></clipPath><clipPath class="axesclip" id="clip86d4e4y"><rect x="0" y="60" width="700" height="309"/></clipPath><clipPath class="axesclip" id="clip86d4e4xy"><rect x="80" y="60" width="540" height="309"/></clipPath></g><g class="gradients"/><g class="patterns"/></defs><g class="bglayer"><rect class="bg" x="80" y="60" width="540" height="309" style="fill: rgb(237, 237, 237); fill-opacity: 1; stroke-width: 0;"/></g><g class="layer-below"><g class="imagelayer"/><g class="shapelayer"/></g><g class="cartesianlayer"><g class="subplot xy"><g class="layer-subplot"><g class="shapelayer"/><g class="imagelayer"/></g><g class="minor-gridlayer"><g class="x"/><g class="y"/></g><g class="gridlayer"><g class="x"><path class="xgrid crisp" transform="translate(93.31,0)" d="M0,60v309" style="stroke: rgb(169, 169, 169); stroke-opacity: 1; stroke-width: 1px;"/><path class="xgrid crisp" transform="translate(119.92,0)" d="M0,60v309" style="stroke: rgb(169, 169, 169); stroke-opacity: 1; stroke-width: 1px;"/><path class="xgrid crisp" transform="translate(146.53,0)" d="M0,60v309" style="stroke: rgb(169, 169, 169); stroke-opacity: 1; stroke-width: 1px;"/><path class="xgrid crisp" transform="translate(173.15,0)" d="M0,60v309" style="stroke: rgb(169, 169, 169); stroke-opacity: 1; stroke-width: 1px;"/><path class="xgrid crisp" transform="translate(199.76,0)" d="M0,60v309" style="stroke: rgb(169, 169, 169); stroke-opacity: 1; stroke-width: 1px;"/><path class="xgrid crisp" transform="translate(226.37,0)" d="M0,60v309" style="stroke: rgb(169, 169, 169); stroke-opacity: 1; stroke-width: 1px;"/><path class="xgrid crisp" transform="translate(252.98,0)" d="M0,60v309" style="stroke: rgb(169, 169, 169); stroke-opacity: 1; stroke-width: 1px;"/><path class="xgrid crisp" transform="translate(279.6,0)" d="M0,60v309" style="stroke: rgb(169, 169, 169); stroke-opacity: 1; stroke-width: 1px;"/><path class="xgrid crisp" transform="translate(306.21000000000004,0)" d="M0,60v309" style="stroke: rgb(169, 169, 169); stroke-opacity: 1; stroke-width: 1px;"/><path class="xgrid crisp" transform="translate(332.82,0)" d="M0,60v309" style="stroke: rgb(169, 169, 169); stroke-opacity: 1; stroke-width: 1px;"/><path class="xgrid crisp" transform="translate(359.44,0)" d="M0,60v309" style="stroke: rgb(169, 169, 169); stroke-opacity: 1; stroke-width: 1px;"/><path class="xgrid crisp" transform="translate(386.05,0)" d="M0,60v309" style="stroke: rgb(169, 169, 169); stroke-opacity: 1; stroke-width: 1px;"/><path class="xgrid crisp" transform="translate(412.66,0)" d="M0,60v309" style="stroke: rgb(169, 169, 169); stroke-opacity: 1; stroke-width: 1px;"/><path class="xgrid crisp" transform="translate(439.27,0)" d="M0,60v309" style="stroke: rgb(169, 169, 169); stroke-opacity: 1; stroke-width: 1px;"/><path class="xgrid crisp" transform="translate(465.89,0)" d="M0,60v309" style="stroke: rgb(169, 169, 169); stroke-opacity: 1; stroke-width: 1px;"/><path class="xgrid crisp" transform="translate(492.5,0)" d="M0,60v309" style="stroke: rgb(169, 169, 169); stroke-opacity: 1; stroke-width: 1px;"/><path class="xgrid crisp" transform="translate(519.11,0)" d="M0,60v309" style="stroke: rgb(169, 169, 169); stroke-opacity: 1; stroke-width: 1px;"/><path class="xgrid crisp" transform="translate(545.73,0)" d="M0,60v309" style="stroke: rgb(169, 169, 169); stroke-opacity: 1; stroke-width: 1px;"/><path class="xgrid crisp" transform="translate(572.3399999999999,0)" d="M0,60v309" style="stroke: rgb(169, 169, 169); stroke-opacity: 1; stroke-width: 1px;"/><path class="xgrid crisp" transform="translate(598.95,0)" d="M0,60v309" style="stroke: rgb(169, 169, 169); stroke-opacity: 1; stroke-width: 1px;"/></g><g class="y"><path class="ygrid crisp" transform="translate(0,333.33)" d="M80,0h540" style="stroke: rgb(169, 169, 169); stroke-opacity: 1; stroke-width: 1px;"/><path class="ygrid crisp" transform="translate(0,297.65999999999997)" d="M80,0h540" style="stroke: rgb(169, 169, 169); stroke-opacity: 1; stroke-width: 1px;"/><path class="ygrid crisp" transform="translate(0,262)" d="M80,0h540" style="stroke: rgb(169, 169, 169); stroke-opacity: 1; stroke-width: 1px;"/><path class="ygrid crisp" transform="translate(0,226.33)" d="M80,0h540" style="stroke: rgb(169, 169, 169); stroke-opacity: 1; stroke-width: 1px;"/><path class="ygrid crisp" transform="translate(0,190.66)" d="M80,0h540" style="stroke: rgb(169, 169, 169); stroke-opacity: 1; stroke-width: 1px;"/><path class="ygrid crisp" transform="translate(0,154.99)" d="M80,0h540" style="stroke: rgb(169, 169, 169); stroke-opacity: 1; stroke-width: 1px;"/><path class="ygrid crisp" transform="translate(0,119.32)" d="M80,0h540" style="stroke: rgb(169, 169, 169); stroke-opacity: 1; stroke-width: 1px;"/><path class="ygrid crisp" transform="translate(0,83.65)" d="M80,0h540" style="stroke: rgb(169, 169, 169); stroke-opacity: 1; stroke-width: 1px;"/></g></g><g class="zerolinelayer"><path class="yzl zl crisp" transform="translate(0,369)" d="M80,0h540" style="stroke: rgb(255, 255, 255); stroke-opacity: 1; stroke-width: 1px;"/></g><path class="xlines-below"/><path class="ylines-below"/><g class="overlines-below"/><g class="xaxislayer-below"/><g class="yaxislayer-below"/><g class="overaxes-below"/><g class="plot" transform="translate(80,60)" clip-path="url(#clip86d4e4xyplot)"><g class="barlayer mlayer"><g class="trace bars" style="opacity: 1;"><g class="points"><g class="point"><path d="M2.66,309V15.45H23.95V309Z" style="vector-effect: none; opacity: 1; stroke-width: 0.5px; fill: rgb(252, 3, 3); fill-opacity: 1; stroke: rgb(237, 237, 237); stroke-opacity: 1;"/></g><g class="point"><path d="M29.27,309V155.09H50.56V309Z" style="vector-effect: none; opacity: 1; stroke-width: 0.5px; fill: rgb(252, 3, 3); fill-opacity: 1; stroke: rgb(237, 237, 237); stroke-opacity: 1;"/></g><g class="point"><path d="M55.89,309V174.17H77.18V309Z" style="vector-effect: none; opacity: 1; stroke-width: 0.5px; fill: rgb(252, 3, 3); fill-opacity: 1; stroke: rgb(237, 237, 237); stroke-opacity: 1;"/></g><g class="point"><path d="M82.5,309V183.98H103.79V309Z" style="vector-effect: none; opacity: 1; stroke-width: 0.5px; fill: rgb(252, 3, 3); fill-opacity: 1; stroke: rgb(237, 237, 237); stroke-opacity: 1;"/></g><g class="point"><path d="M109.11,309V184.16H130.4V309Z" style="vector-effect: none; opacity: 1; stroke-width: 0.5px; fill: rgb(252, 3, 3); fill-opacity: 1; stroke: rgb(237, 237, 237); stroke-opacity: 1;"/></g><g class="point"><path d="M135.73,309V188.08H157.02V309Z" style="vector-effect: none; opacity: 1; stroke-width: 0.5px; fill: rgb(252, 3, 3); fill-opacity: 1; stroke: rgb(237, 237, 237); stroke-opacity: 1;"/></g><g class="point"><path d="M162.34,309V211.09H183.63V309Z" style="vector-effect: none; opacity: 1; stroke-width: 0.5px; fill: rgb(252, 3, 3); fill-opacity: 1; stroke: rgb(237, 237, 237); stroke-opacity: 1;"/></g><g class="point"><path d="M188.95,309V211.27H210.24V309Z" style="vector-effect: none; opacity: 1; stroke-width: 0.5px; fill: rgb(252, 3, 3); fill-opacity: 1; stroke: rgb(237, 237, 237); stroke-opacity: 1;"/></g><g class="point"><path d="M215.56,309V225.54H236.85V309Z" style="vector-effect: none; opacity: 1; stroke-width: 0.5px; fill: rgb(252, 3, 3); fill-opacity: 1; stroke: rgb(237, 237, 237); stroke-opacity: 1;"/></g><g class="point"><path d="M242.18,309V227.5H263.47V309Z" style="vector-effect: none; opacity: 1; stroke-width: 0.5px; fill: rgb(252, 3, 3); fill-opacity: 1; stroke: rgb(237, 237, 237); stroke-opacity: 1;"/></g><g class="point"><path d="M268.79,309V229.64H290.08V309Z" style="vector-effect: none; opacity: 1; stroke-width: 0.5px; fill: rgb(252, 3, 3); fill-opacity: 1; stroke: rgb(237, 237, 237); stroke-opacity: 1;"/></g><g class="point"><path d="M295.4,309V229.99H316.69V309Z" style="vector-effect: none; opacity: 1; stroke-width: 0.5px; fill: rgb(252, 3, 3); fill-opacity: 1; stroke: rgb(237, 237, 237); stroke-opacity: 1;"/></g><g class="point"><path d="M322.02,309V235.7H343.31V309Z" style="vector-effect: none; opacity: 1; stroke-width: 0.5px; fill: rgb(252, 3, 3); fill-opacity: 1; stroke: rgb(237, 237, 237); stroke-opacity: 1;"/></g><g class="point"><path d="M348.63,309V240.7H369.92V309Z" style="vector-effect: none; opacity: 1; stroke-width: 0.5px; fill: rgb(252, 3, 3); fill-opacity: 1; stroke: rgb(237, 237, 237); stroke-opacity: 1;"/></g><g class="point"><path d="M375.24,309V245.69H396.53V309Z" style="vector-effect: none; opacity: 1; stroke-width: 0.5px; fill: rgb(252, 3, 3); fill-opacity: 1; stroke: rgb(237, 237, 237); stroke-opacity: 1;"/></g><g class="point"><path d="M401.85,309V246.76H423.15V309Z" style="vector-effect: none; opacity: 1; stroke-width: 0.5px; fill: rgb(252, 3, 3); fill-opacity: 1; stroke: rgb(237, 237, 237); stroke-opacity: 1;"/></g><g class="point"><path d="M428.47,309V247.83H449.76V309Z" style="vector-effect: none; opacity: 1; stroke-width: 0.5px; fill: rgb(252, 3, 3); fill-opacity: 1; stroke: rgb(237, 237, 237); stroke-opacity: 1;"/></g><g class="point"><path d="M455.08,309V248.19H476.37V309Z" style="vector-effect: none; opacity: 1; stroke-width: 0.5px; fill: rgb(252, 3, 3); fill-opacity: 1; stroke: rgb(237, 237, 237); stroke-opacity: 1;"/></g><g class="point"><path d="M481.69,309V252.11H502.98V309Z" style="vector-effect: none; opacity: 1; stroke-width: 0.5px; fill: rgb(252, 3, 3); fill-opacity: 1; stroke: rgb(237, 237, 237); stroke-opacity: 1;"/></g><g class="point"><path d="M508.31,309V253.18H529.6V309Z" style="vector-effect: none; opacity: 1; stroke-width: 0.5px; fill: rgb(252, 3, 3); fill-opacity: 1; stroke: rgb(237, 237, 237); stroke-opacity: 1;"/></g></g></g></g></g><g class="overplot"/><path class="xlines-above crisp" d="M79,369.5H620" style="fill: none; stroke-width: 1px; stroke: rgb(0, 0, 0); stroke-opacity: 1;"/><path class="ylines-above crisp" d="M79.5,60V369" style="fill: none; stroke-width: 1px; stroke: rgb(0, 0, 0); stroke-opacity: 1;"/><g class="overlines-above"/><g class="xaxislayer-above"><path class="xtick ticks crisp" d="M0,370v5" transform="translate(93.31,0)" style="stroke: rgb(51, 51, 51); stroke-opacity: 1; stroke-width: 1px;"/><path class="xtick ticks crisp" d="M0,370v5" transform="translate(119.92,0)" style="stroke: rgb(51, 51, 51); stroke-opacity: 1; stroke-width: 1px;"/><path class="xtick ticks crisp" d="M0,370v5" transform="translate(146.53,0)" style="stroke: rgb(51, 51, 51); stroke-opacity: 1; stroke-width: 1px;"/><path class="xtick ticks crisp" d="M0,370v5" transform="translate(173.15,0)" style="stroke: rgb(51, 51, 51); stroke-opacity: 1; stroke-width: 1px;"/><path class="xtick ticks crisp" d="M0,370v5" transform="translate(199.76,0)" style="stroke: rgb(51, 51, 51); stroke-opacity: 1; stroke-width: 1px;"/><path class="xtick ticks crisp" d="M0,370v5" transform="translate(226.37,0)" style="stroke: rgb(51, 51, 51); stroke-opacity: 1; stroke-width: 1px;"/><path class="xtick ticks crisp" d="M0,370v5" transform="translate(252.98,0)" style="stroke: rgb(51, 51, 51); stroke-opacity: 1; stroke-width: 1px;"/><path class="xtick ticks crisp" d="M0,370v5" transform="translate(279.6,0)" style="stroke: rgb(51, 51, 51); stroke-opacity: 1; stroke-width: 1px;"/><path class="xtick ticks crisp" d="M0,370v5" transform="translate(306.21000000000004,0)" style="stroke: rgb(51, 51, 51); stroke-opacity: 1; stroke-width: 1px;"/><path class="xtick ticks crisp" d="M0,370v5" transform="translate(332.82,0)" style="stroke: rgb(51, 51, 51); stroke-opacity: 1; stroke-width: 1px;"/><path class="xtick ticks crisp" d="M0,370v5" transform="translate(359.44,0)" style="stroke: rgb(51, 51, 51); stroke-opacity: 1; stroke-width: 1px;"/><path class="xtick ticks crisp" d="M0,370v5" transform="translate(386.05,0)" style="stroke: rgb(51, 51, 51); stroke-opacity: 1; stroke-width: 1px;"/><path class="xtick ticks crisp" d="M0,370v5" transform="translate(412.66,0)" style="stroke: rgb(51, 51, 51); stroke-opacity: 1; stroke-width: 1px;"/><path class="xtick ticks crisp" d="M0,370v5" transform="translate(439.27,0)" style="stroke: rgb(51, 51, 51); stroke-opacity: 1; stroke-width: 1px;"/><path class="xtick ticks crisp" d="M0,370v5" transform="translate(465.89,0)" style="stroke: rgb(51, 51, 51); stroke-opacity: 1; stroke-width: 1px;"/><path class="xtick ticks crisp" d="M0,370v5" transform="translate(492.5,0)" style="stroke: rgb(51, 51, 51); stroke-opacity: 1; stroke-width: 1px;"/><path class="xtick ticks crisp" d="M0,370v5" transform="translate(519.11,0)" style="stroke: rgb(51, 51, 51); stroke-opacity: 1; stroke-width: 1px;"/><path class="xtick ticks crisp" d="M0,370v5" transform="translate(545.73,0)" style="stroke: rgb(51, 51, 51); stroke-opacity: 1; stroke-width: 1px;"/><path class="xtick ticks crisp" d="M0,370v5" transform="translate(572.3399999999999,0)" style="stroke: rgb(51, 51, 51); stroke-opacity: 1; stroke-width: 1px;"/><path class="xtick ticks crisp" d="M0,370v5" transform="translate(598.95,0)" style="stroke: rgb(51, 51, 51); stroke-opacity: 1; stroke-width: 1px;"/><g class="xtick"><text text-anchor="start" x="0" y="389.4" transform="translate(93.31,0) rotate(90,0,383.4)" style="font-family: 'Franklin Gothic'; font-size: 12px; fill: rgb(51, 51, 51); fill-opacity: 1; white-space: pre; opacity: 1;">gaming</text></g><g class="xtick"><text text-anchor="start" x="0" y="389.4" transform="translate(119.92,0) rotate(90,0,383.4)" style="font-family: 'Franklin Gothic'; font-size: 12px; fill: rgb(51, 51, 51); fill-opacity: 1; white-space: pre; opacity: 1;">minecraft</text></g><g class="xtick"><text text-anchor="start" x="0" y="389.4" transform="translate(146.53,0) rotate(90,0,383.4)" style="font-family: 'Franklin Gothic'; font-size: 12px; fill: rgb(51, 51, 51); fill-opacity: 1; white-space: pre; opacity: 1;">gameplay</text></g><g class="xtick"><text text-anchor="start" x="0" y="389.4" transform="translate(173.15,0) rotate(90,0,383.4)" style="font-family: 'Franklin Gothic'; font-size: 12px; fill: rgb(51, 51, 51); fill-opacity: 1; white-space: pre; opacity: 1;">free fire</text></g><g class="xtick"><text text-anchor="start" x="0" y="389.4" transform="translate(199.76,0) rotate(90,0,383.4)" style="font-family: 'Franklin Gothic'; font-size: 12px; fill: rgb(51, 51, 51); fill-opacity: 1; white-space: pre; opacity: 1;">funny</text></g><g class="xtick"><text text-anchor="start" x="0" y="389.4" transform="translate(226.37,0) rotate(90,0,383.4)" style="font-family: 'Franklin Gothic'; font-size: 12px; fill: rgb(51, 51, 51); fill-opacity: 1; white-space: pre; opacity: 1;">roblox</text></g><g class="xtick"><text text-anchor="start" x="0" y="389.4" transform="translate(252.98,0) rotate(90,0,383.4)" style="font-family: 'Franklin Gothic'; font-size: 12px; fill: rgb(51, 51, 51); fill-opacity: 1; white-space: pre; opacity: 1;">games</text></g><g class="xtick"><text text-anchor="start" x="0" y="389.4" transform="translate(279.6,0) rotate(90,0,383.4)" style="font-family: 'Franklin Gothic'; font-size: 12px; fill: rgb(51, 51, 51); fill-opacity: 1; white-space: pre; opacity: 1;">gta 5</text></g><g class="xtick"><text text-anchor="start" x="0" y="389.4" transform="translate(306.21000000000004,0) rotate(90,0,383.4)" style="font-family: 'Franklin Gothic'; font-size: 12px; fill: rgb(51, 51, 51); fill-opacity: 1; white-space: pre; opacity: 1;">gta</text></g><g class="xtick"><text text-anchor="start" x="0" y="389.4" transform="translate(332.82,0) rotate(90,0,383.4)" style="font-family: 'Franklin Gothic'; font-size: 12px; fill: rgb(51, 51, 51); fill-opacity: 1; white-space: pre; opacity: 1;">Gaming</text></g><g class="xtick"><text text-anchor="start" x="0" y="389.4" transform="translate(359.44,0) rotate(90,0,383.4)" style="font-family: 'Franklin Gothic'; font-size: 12px; fill: rgb(51, 51, 51); fill-opacity: 1; white-space: pre; opacity: 1;">game</text></g><g class="xtick"><text text-anchor="start" x="0" y="389.4" transform="translate(386.05,0) rotate(90,0,383.4)" style="font-family: 'Franklin Gothic'; font-size: 12px; fill: rgb(51, 51, 51); fill-opacity: 1; white-space: pre; opacity: 1;">garena free fire</text></g><g class="xtick"><text text-anchor="start" x="0" y="389.4" transform="translate(412.66,0) rotate(90,0,383.4)" style="font-family: 'Franklin Gothic'; font-size: 12px; fill: rgb(51, 51, 51); fill-opacity: 1; white-space: pre; opacity: 1;">gta v</text></g><g class="xtick"><text text-anchor="start" x="0" y="389.4" transform="translate(439.27,0) rotate(90,0,383.4)" style="font-family: 'Franklin Gothic'; font-size: 12px; fill: rgb(51, 51, 51); fill-opacity: 1; white-space: pre; opacity: 1;">ps5</text></g><g class="xtick"><text text-anchor="start" x="0" y="389.4" transform="translate(465.89,0) rotate(90,0,383.4)" style="font-family: 'Franklin Gothic'; font-size: 12px; fill: rgb(51, 51, 51); fill-opacity: 1; white-space: pre; opacity: 1;">fun</text></g><g class="xtick"><text text-anchor="start" x="0" y="389.4" transform="translate(492.5,0) rotate(90,0,383.4)" style="font-family: 'Franklin Gothic'; font-size: 12px; fill: rgb(51, 51, 51); fill-opacity: 1; white-space: pre; opacity: 1;">shorts</text></g><g class="xtick"><text text-anchor="start" x="0" y="389.4" transform="translate(519.11,0) rotate(90,0,383.4)" style="font-family: 'Franklin Gothic'; font-size: 12px; fill: rgb(51, 51, 51); fill-opacity: 1; white-space: pre; opacity: 1;">live</text></g><g class="xtick"><text text-anchor="start" x="0" y="389.4" transform="translate(545.73,0) rotate(90,0,383.4)" style="font-family: 'Franklin Gothic'; font-size: 12px; fill: rgb(51, 51, 51); fill-opacity: 1; white-space: pre; opacity: 1;">pc</text></g><g class="xtick"><text text-anchor="start" x="0" y="389.4" transform="translate(572.3399999999999,0) rotate(90,0,383.4)" style="font-family: 'Franklin Gothic'; font-size: 12px; fill: rgb(51, 51, 51); fill-opacity: 1; white-space: pre; opacity: 1;">total gaming</text></g><g class="xtick"><text text-anchor="start" x="0" y="389.4" transform="translate(598.95,0) rotate(90,0,383.4)" style="font-family: 'Franklin Gothic'; font-size: 12px; fill: rgb(51, 51, 51); fill-opacity: 1; white-space: pre; opacity: 1;">pubg</text></g></g><g class="yaxislayer-above"><path class="ytick ticks crisp" d="M79,0h-5" transform="translate(0,369)" style="stroke: rgb(51, 51, 51); stroke-opacity: 1; stroke-width: 1px;"/><path class="ytick ticks crisp" d="M79,0h-5" transform="translate(0,333.33)" style="stroke: rgb(51, 51, 51); stroke-opacity: 1; stroke-width: 1px;"/><path class="ytick ticks crisp" d="M79,0h-5" transform="translate(0,297.65999999999997)" style="stroke: rgb(51, 51, 51); stroke-opacity: 1; stroke-width: 1px;"/><path class="ytick ticks crisp" d="M79,0h-5" transform="translate(0,262)" style="stroke: rgb(51, 51, 51); stroke-opacity: 1; stroke-width: 1px;"/><path class="ytick ticks crisp" d="M79,0h-5" transform="translate(0,226.33)" style="stroke: rgb(51, 51, 51); stroke-opacity: 1; stroke-width: 1px;"/><path class="ytick ticks crisp" d="M79,0h-5" transform="translate(0,190.66)" style="stroke: rgb(51, 51, 51); stroke-opacity: 1; stroke-width: 1px;"/><path class="ytick ticks crisp" d="M79,0h-5" transform="translate(0,154.99)" style="stroke: rgb(51, 51, 51); stroke-opacity: 1; stroke-width: 1px;"/><path class="ytick ticks crisp" d="M79,0h-5" transform="translate(0,119.32)" style="stroke: rgb(51, 51, 51); stroke-opacity: 1; stroke-width: 1px;"/><path class="ytick ticks crisp" d="M79,0h-5" transform="translate(0,83.65)" style="stroke: rgb(51, 51, 51); stroke-opacity: 1; stroke-width: 1px;"/><g class="ytick"><text text-anchor="end" x="71.6" y="4.199999999999999" transform="translate(0,369)" style="font-family: 'Franklin Gothic'; font-size: 12px; fill: rgb(51, 51, 51); fill-opacity: 1; white-space: pre; opacity: 1;">0</text></g><g class="ytick"><text text-anchor="end" x="71.6" y="4.199999999999999" style="font-family: 'Franklin Gothic'; font-size: 12px; fill: rgb(51, 51, 51); fill-opacity: 1; white-space: pre; opacity: 1;" transform="translate(0,333.33)">200</text></g><g class="ytick"><text text-anchor="end" x="71.6" y="4.199999999999999" style="font-family: 'Franklin Gothic'; font-size: 12px; fill: rgb(51, 51, 51); fill-opacity: 1; white-space: pre; opacity: 1;" transform="translate(0,297.65999999999997)">400</text></g><g class="ytick"><text text-anchor="end" x="71.6" y="4.199999999999999" style="font-family: 'Franklin Gothic'; font-size: 12px; fill: rgb(51, 51, 51); fill-opacity: 1; white-space: pre; opacity: 1;" transform="translate(0,262)">600</text></g><g class="ytick"><text text-anchor="end" x="71.6" y="4.199999999999999" style="font-family: 'Franklin Gothic'; font-size: 12px; fill: rgb(51, 51, 51); fill-opacity: 1; white-space: pre; opacity: 1;" transform="translate(0,226.33)">800</text></g><g class="ytick"><text text-anchor="end" x="71.6" y="4.199999999999999" style="font-family: 'Franklin Gothic'; font-size: 12px; fill: rgb(51, 51, 51); fill-opacity: 1; white-space: pre; opacity: 1;" transform="translate(0,190.66)">1000</text></g><g class="ytick"><text text-anchor="end" x="71.6" y="4.199999999999999" style="font-family: 'Franklin Gothic'; font-size: 12px; fill: rgb(51, 51, 51); fill-opacity: 1; white-space: pre; opacity: 1;" transform="translate(0,154.99)">1200</text></g><g class="ytick"><text text-anchor="end" x="71.6" y="4.199999999999999" style="font-family: 'Franklin Gothic'; font-size: 12px; fill: rgb(51, 51, 51); fill-opacity: 1; white-space: pre; opacity: 1;" transform="translate(0,119.32)">1400</text></g><g class="ytick"><text text-anchor="end" x="71.6" y="4.199999999999999" style="font-family: 'Franklin Gothic'; font-size: 12px; fill: rgb(51, 51, 51); fill-opacity: 1; white-space: pre; opacity: 1;" transform="translate(0,83.65)">1600</text></g></g><g class="overaxes-above"/></g></g><g class="polarlayer"/><g class="smithlayer"/><g class="ternarylayer"/><g class="geolayer"/><g class="funnelarealayer"/><g class="pielayer"/><g class="iciclelayer"/><g class="treemaplayer"/><g class="sunburstlayer"/><g class="glimages"/><defs id="topdefs-86d4e4"><g class="clips"/></defs><g class="layer-above"><g class="imagelayer"/><g class="shapelayer"/></g><g class="infolayer"><g class="g-gtitle"><text class="gtitle" x="350" y="30" text-anchor="middle" dy="0em" style="font-family: 'Franklin Gothic'; font-size: 17px; fill: rgb(51, 51, 51); opacity: 1; font-weight: normal; white-space: pre;">Tags appending count</text></g><g class="g-xtitle"><text class="xtitle" x="350" y="487.731640625" text-anchor="middle" style="font-family: 'Franklin Gothic'; font-size: 14px; fill: rgb(51, 51, 51); opacity: 1; font-weight: normal; white-space: pre;">Tag</text></g><g class="g-ytitle"><text class="ytitle" transform="rotate(-90,19.137500000000003,214.5)" x="19.137500000000003" y="214.5" text-anchor="middle" style="font-family: 'Franklin Gothic'; font-size: 14px; fill: rgb(51, 51, 51); opacity: 1; font-weight: normal; white-space: pre;">Count</text></g><g class="annotation" data-index="0" style="opacity: 1;"><g class="annotation-text-g" transform="rotate(0,482.5,249.83000000000004)"><g class="cursor-pointer" transform="translate(345,233)"><rect class="bg" x="0.5" y="0.5" width="274" height="33" style="stroke-width: 1px; stroke: rgb(0, 0, 0); stroke-opacity: 0; fill: rgb(0, 0, 0); fill-opacity: 0;"/><text class="annotation-text" text-anchor="middle" x="138.203125" y="13" style="font-family: 'Franklin Gothic'; font-size: 12px; fill: rgb(51, 51, 51); fill-opacity: 1; white-space: pre;"><tspan class="line" dy="0em" x="138.203125" y="13">We can find that the shorts in gaming now are more </tspan><tspan class="line" dy="1.3em" x="138.203125" y="13">popular now than lives.</tspan></text></g></g><g class="annotation-arrow-g" style="opacity: 1;"><path d="M488,266.33000000000004L492.5,279.83000000000004" style="stroke-width: 2px; stroke: rgb(68, 68, 68); stroke-opacity: 1; stroke-dasharray: 0px, 0px, 13.0302px, 14.2302px;"/><path d="M-2.4,-3V3L0.6,0Z" transform="translate(492.1205139160156,278.6915588378906)rotate(71.57058005668189)scale(2)" style="fill: rgb(68, 68, 68); stroke-width: 0;"/></g></g><g class="annotation" data-index="1" style="opacity: 1;"><g class="annotation-text-g" transform="rotate(0,173.15,199.58)"><g class="cursor-pointer" transform="translate(111,175)"><rect class="bg" x="0.5" y="0.5" width="124" height="48" style="stroke-width: 1px; stroke: rgb(0, 0, 0); stroke-opacity: 0; fill: rgb(0, 0, 0); fill-opacity: 0;"/><text class="annotation-text" text-anchor="middle" x="62.171875" y="13" style="font-family: 'Franklin Gothic'; font-size: 12px; fill: rgb(51, 51, 51); fill-opacity: 1; white-space: pre;"><tspan class="line" dy="0em" x="62.171875" y="13">Looks like people looks</tspan><tspan class="line" dy="1.3em" x="62.171875" y="13"> for gameplay videos</tspan><tspan class="line" dy="2.6em" x="62.171875" y="13">more than funny ones.</tspan></text></g></g></g></g></svg>