<svg class="main-svg" xmlns="http://www.w3.org/2000/svg" xmlns:xlink="http://www.w3.org/1999/xlink" width="700" height="500" style="" viewBox="0 0 700 500"><rect x="0" y="0" width="700" height="500" style="fill: rgb(255, 255, 255); fill-opacity: 1;"/><defs id="defs-ff4795"><g class="clips"><clipPath id="clipff4795xyplot" class="plotclip"><rect width="496" height="267"/></clipPath><clipPath class="axesclip" id="clipff4795x"><rect x="80" y="0" width="496" height="500"/></clipPath><clipPath class="axesclip" id="clipff4795y"><rect x="0" y="100" width="700" height="267"/></clipPath><clipPath class="axesclip" id="clipff4795xy"><rect x="80" y="100" width="496" height="267"/></clipPath></g><g class="gradients"/><g class="patterns"/></defs><g class="bglayer"><rect class="bg" x="80" y="100" width="496" height="267" style="fill: rgb(237, 237, 237); fill-opacity: 1; stroke-width: 0;"/></g><g class="layer-below"><g class="imagelayer"/><g class="shapelayer"/></g><g class="cartesianlayer"><g class="subplot xy"><g class="layer-subplot"><g class="shapelayer"/><g class="imagelayer"/></g><g class="minor-gridlayer"><g class="x"/><g class="y"/></g><g class="gridlayer"><g class="x"><path class="xgrid crisp" transform="translate(93.42,0)" d="M0,100v267" style="stroke: rgb(169, 169, 169); stroke-opacity: 1; stroke-width: 1px;"/><path class="xgrid crisp" transform="translate(109.78,0)" d="M0,100v267" style="stroke: rgb(169, 169, 169); stroke-opacity: 1; stroke-width: 1px;"/><path class="xgrid crisp" transform="translate(126.14,0)" d="M0,100v267" style="stroke: rgb(169, 169, 169); stroke-opacity: 1; stroke-width: 1px;"/><path class="xgrid crisp" transform="translate(142.5,0)" d="M0,100v267" style="stroke: rgb(169, 169, 169); stroke-opacity: 1; stroke-width: 1px;"/><path class="xgrid crisp" transform="translate(158.86,0)" d="M0,100v267" style="stroke: rgb(169, 169, 169); stroke-opacity: 1; stroke-width: 1px;"/><path class="xgrid crisp" transform="translate(175.22,0)" d="M0,100v267" style="stroke: rgb(169, 169, 169); stroke-opacity: 1; stroke-width: 1px;"/><path class="xgrid crisp" transform="translate(191.57999999999998,0)" d="M0,100v267" style="stroke: rgb(169, 169, 169); stroke-opacity: 1; stroke-width: 1px;"/><path class="xgrid crisp" transform="translate(207.93,0)" d="M0,100v267" style="stroke: rgb(169, 169, 169); stroke-opacity: 1; stroke-width: 1px;"/><path class="xgrid crisp" transform="translate(224.29,0)" d="M0,100v267" style="stroke: rgb(169, 169, 169); stroke-opacity: 1; stroke-width: 1px;"/><path class="xgrid crisp" transform="translate(240.65,0)" d="M0,100v267" style="stroke: rgb(169, 169, 169); stroke-opacity: 1; stroke-width: 1px;"/><path class="xgrid crisp" transform="translate(257.01,0)" d="M0,100v267" style="stroke: rgb(169, 169, 169); stroke-opacity: 1; stroke-width: 1px;"/><path class="xgrid crisp" transform="translate(273.37,0)" d="M0,100v267" style="stroke: rgb(169, 169, 169); stroke-opacity: 1; stroke-width: 1px;"/><path class="xgrid crisp" transform="translate(289.73,0)" d="M0,100v267" style="stroke: rgb(169, 169, 169); stroke-opacity: 1; stroke-width: 1px;"/><path class="xgrid crisp" transform="translate(306.08000000000004,0)" d="M0,100v267" style="stroke: rgb(169, 169, 169); stroke-opacity: 1; stroke-width: 1px;"/><path class="xgrid crisp" transform="translate(322.44,0)" d="M0,100v267" style="stroke: rgb(169, 169, 169); stroke-opacity: 1; stroke-width: 1px;"/><path class="xgrid crisp" transform="translate(338.8,0)" d="M0,100v267" style="stroke: rgb(169, 169, 169); stroke-opacity: 1; stroke-width: 1px;"/><path class="xgrid crisp" transform="translate(355.16,0)" d="M0,100v267" style="stroke: rgb(169, 169, 169); stroke-opacity: 1; stroke-width: 1px;"/><path class="xgrid crisp" transform="translate(371.52,0)" d="M0,100v267" style="stroke: rgb(169, 169, 169); stroke-opacity: 1; stroke-width: 1px;"/><path class="xgrid crisp" transform="translate(387.88,0)" d="M0,100v267" style="stroke: rgb(169, 169, 169); stroke-opacity: 1; stroke-width: 1px;"/><path class="xgrid crisp" transform="translate(404.24,0)" d="M0,100v267" style="stroke: rgb(169, 169, 169); stroke-opacity: 1; stroke-width: 1px;"/><path class="xgrid crisp" transform="translate(420.59,0)" d="M0,100v267" style="stroke: rgb(169, 169, 169); stroke-opacity: 1; stroke-width: 1px;"/><path class="xgrid crisp" transform="translate(436.95,0)" d="M0,100v267" style="stroke: rgb(169, 169, 169); stroke-opacity: 1; stroke-width: 1px;"/><path class="xgrid crisp" transform="translate(453.31,0)" d="M0,100v267" style="stroke: rgb(169, 169, 169); stroke-opacity: 1; stroke-width: 1px;"/><path class="xgrid crisp" transform="translate(469.67,0)" d="M0,100v267" style="stroke: rgb(169, 169, 169); stroke-opacity: 1; stroke-width: 1px;"/><path class="xgrid crisp" transform="translate(486.03,0)" d="M0,100v267" style="stroke: rgb(169, 169, 169); stroke-opacity: 1; stroke-width: 1px;"/><path class="xgrid crisp" transform="translate(502.39,0)" d="M0,100v267" style="stroke: rgb(169, 169, 169); stroke-opacity: 1; stroke-width: 1px;"/><path class="xgrid crisp" transform="translate(518.75,0)" d="M0,100v267" style="stroke: rgb(169, 169, 169); stroke-opacity: 1; stroke-width: 1px;"/><path class="xgrid crisp" transform="translate(535.1,0)" d="M0,100v267" style="stroke: rgb(169, 169, 169); stroke-opacity: 1; stroke-width: 1px;"/><path class="xgrid crisp" transform="translate(551.46,0)" d="M0,100v267" style="stroke: rgb(169, 169, 169); stroke-opacity: 1; stroke-width: 1px;"/><path class="xgrid crisp" transform="translate(567.8199999999999,0)" d="M0,100v267" style="stroke: rgb(169, 169, 169); stroke-opacity: 1; stroke-width: 1px;"/></g><g class="y"><path class="ygrid crisp" transform="translate(0,301.31)" d="M80,0h496" style="stroke: rgb(169, 169, 169); stroke-opacity: 1; stroke-width: 1px;"/><path class="ygrid crisp" transform="translate(0,260.13)" d="M80,0h496" style="stroke: rgb(169, 169, 169); stroke-opacity: 1; stroke-width: 1px;"/><path class="ygrid crisp" transform="translate(0,218.94)" d="M80,0h496" style="stroke: rgb(169, 169, 169); stroke-opacity: 1; stroke-width: 1px;"/><path class="ygrid crisp" transform="translate(0,177.75)" d="M80,0h496" style="stroke: rgb(169, 169, 169); stroke-opacity: 1; stroke-width: 1px;"/><path class="ygrid crisp" transform="translate(0,136.56)" d="M80,0h496" style="stroke: rgb(169, 169, 169); stroke-opacity: 1; stroke-width: 1px;"/></g></g><g class="zerolinelayer"><path class="yzl zl crisp" transform="translate(0,342.5)" d="M80,0h496" style="stroke: rgb(255, 255, 255); stroke-opacity: 1; stroke-width: 1px;"/></g><path class="xlines-below"/><path class="ylines-below"/><g class="overlines-below"/><g class="xaxislayer-below"/><g class="yaxislayer-below"/><g class="overaxes-below"/><g class="plot" transform="translate(80,100)" clip-path="url(#clipff4795xyplot)"><g class="barlayer mlayer"><g class="trace bars" style="opacity: 1;"><g class="points"><g class="point"><path d="M6.88,242.5V44.29H11.24V242.5Z" style="vector-effect: none; opacity: 1; stroke-width: 0.5px; fill: rgb(46, 46, 46); fill-opacity: 1; stroke: rgb(237, 237, 237); stroke-opacity: 1;"/></g><g class="point"><path d="M23.24,242.5V96.8H27.6V242.5Z" style="vector-effect: none; opacity: 1; stroke-width: 0.5px; fill: rgb(46, 46, 46); fill-opacity: 1; stroke: rgb(237, 237, 237); stroke-opacity: 1;"/></g><g class="point"><path d="M39.6,242.5V13.35H43.96V242.5Z" style="vector-effect: none; opacity: 1; stroke-width: 0.5px; fill: rgb(46, 46, 46); fill-opacity: 1; stroke: rgb(237, 237, 237); stroke-opacity: 1;"/></g><g class="point"><path d="M55.96,242.5V181.23H60.32V242.5Z" style="vector-effect: none; opacity: 1; stroke-width: 0.5px; fill: rgb(46, 46, 46); fill-opacity: 1; stroke: rgb(237, 237, 237); stroke-opacity: 1;"/></g><g class="point"><path d="M72.32,242.5V78.86H76.68V242.5Z" style="vector-effect: none; opacity: 1; stroke-width: 0.5px; fill: rgb(46, 46, 46); fill-opacity: 1; stroke: rgb(237, 237, 237); stroke-opacity: 1;"/></g><g class="point"><path d="M88.67,242.5V141.49H93.04V242.5Z" style="vector-effect: none; opacity: 1; stroke-width: 0.5px; fill: rgb(46, 46, 46); fill-opacity: 1; stroke: rgb(237, 237, 237); stroke-opacity: 1;"/></g><g class="point"><path d="M105.03,242.5V185.09H109.39V242.5Z" style="vector-effect: none; opacity: 1; stroke-width: 0.5px; fill: rgb(46, 46, 46); fill-opacity: 1; stroke: rgb(237, 237, 237); stroke-opacity: 1;"/></g><g class="point"><path d="M121.39,242.5V133.17H125.75V242.5Z" style="vector-effect: none; opacity: 1; stroke-width: 0.5px; fill: rgb(46, 46, 46); fill-opacity: 1; stroke: rgb(237, 237, 237); stroke-opacity: 1;"/></g><g class="point"><path d="M137.75,242.5V172.64H142.11V242.5Z" style="vector-effect: none; opacity: 1; stroke-width: 0.5px; fill: rgb(46, 46, 46); fill-opacity: 1; stroke: rgb(237, 237, 237); stroke-opacity: 1;"/></g><g class="point"><path d="M154.11,242.5V144.43H158.47V242.5Z" style="vector-effect: none; opacity: 1; stroke-width: 0.5px; fill: rgb(46, 46, 46); fill-opacity: 1; stroke: rgb(237, 237, 237); stroke-opacity: 1;"/></g><g class="point"><path d="M170.47,242.5V175.01H174.83V242.5Z" style="vector-effect: none; opacity: 1; stroke-width: 0.5px; fill: rgb(46, 46, 46); fill-opacity: 1; stroke: rgb(237, 237, 237); stroke-opacity: 1;"/></g><g class="point"><path d="M186.82,242.5V210.01H191.19V242.5Z" style="vector-effect: none; opacity: 1; stroke-width: 0.5px; fill: rgb(46, 46, 46); fill-opacity: 1; stroke: rgb(237, 237, 237); stroke-opacity: 1;"/></g><g class="point"><path d="M203.18,242.5V136H207.55V242.5Z" style="vector-effect: none; opacity: 1; stroke-width: 0.5px; fill: rgb(46, 46, 46); fill-opacity: 1; stroke: rgb(237, 237, 237); stroke-opacity: 1;"/></g><g class="point"><path d="M219.54,242.5V139.51H223.9V242.5Z" style="vector-effect: none; opacity: 1; stroke-width: 0.5px; fill: rgb(46, 46, 46); fill-opacity: 1; stroke: rgb(237, 237, 237); stroke-opacity: 1;"/></g><g class="point"><path d="M235.9,242.5V136.97H240.26V242.5Z" style="vector-effect: none; opacity: 1; stroke-width: 0.5px; fill: rgb(46, 46, 46); fill-opacity: 1; stroke: rgb(237, 237, 237); stroke-opacity: 1;"/></g><g class="point"><path d="M252.26,242.5V177.35H256.62V242.5Z" style="vector-effect: none; opacity: 1; stroke-width: 0.5px; fill: rgb(46, 46, 46); fill-opacity: 1; stroke: rgb(237, 237, 237); stroke-opacity: 1;"/></g><g class="point"><path d="M268.62,242.5V194.06H272.98V242.5Z" style="vector-effect: none; opacity: 1; stroke-width: 0.5px; fill: rgb(46, 46, 46); fill-opacity: 1; stroke: rgb(237, 237, 237); stroke-opacity: 1;"/></g><g class="point"><path d="M284.98,242.5V172.76H289.34V242.5Z" style="vector-effect: none; opacity: 1; stroke-width: 0.5px; fill: rgb(46, 46, 46); fill-opacity: 1; stroke: rgb(237, 237, 237); stroke-opacity: 1;"/></g><g class="point"><path d="M301.33,242.5V216.51H305.7V242.5Z" style="vector-effect: none; opacity: 1; stroke-width: 0.5px; fill: rgb(46, 46, 46); fill-opacity: 1; stroke: rgb(237, 237, 237); stroke-opacity: 1;"/></g><g class="point"><path d="M317.69,242.5V218.77H322.05V242.5Z" style="vector-effect: none; opacity: 1; stroke-width: 0.5px; fill: rgb(46, 46, 46); fill-opacity: 1; stroke: rgb(237, 237, 237); stroke-opacity: 1;"/></g><g class="point"><path d="M334.05,242.5V191.46H338.41V242.5Z" style="vector-effect: none; opacity: 1; stroke-width: 0.5px; fill: rgb(46, 46, 46); fill-opacity: 1; stroke: rgb(237, 237, 237); stroke-opacity: 1;"/></g><g class="point"><path d="M350.41,242.5V211.75H354.77V242.5Z" style="vector-effect: none; opacity: 1; stroke-width: 0.5px; fill: rgb(46, 46, 46); fill-opacity: 1; stroke: rgb(237, 237, 237); stroke-opacity: 1;"/></g><g class="point"><path d="M366.77,242.5V204.85H371.13V242.5Z" style="vector-effect: none; opacity: 1; stroke-width: 0.5px; fill: rgb(46, 46, 46); fill-opacity: 1; stroke: rgb(237, 237, 237); stroke-opacity: 1;"/></g><g class="point"><path d="M383.13,242.5V27.43H387.49V242.5Z" style="vector-effect: none; opacity: 1; stroke-width: 0.5px; fill: rgb(46, 46, 46); fill-opacity: 1; stroke: rgb(237, 237, 237); stroke-opacity: 1;"/></g><g class="point"><path d="M399.48,242.5V222.64H403.85V242.5Z" style="vector-effect: none; opacity: 1; stroke-width: 0.5px; fill: rgb(46, 46, 46); fill-opacity: 1; stroke: rgb(237, 237, 237); stroke-opacity: 1;"/></g><g class="point"><path d="M415.84,242.5V225.39H420.21V242.5Z" style="vector-effect: none; opacity: 1; stroke-width: 0.5px; fill: rgb(46, 46, 46); fill-opacity: 1; stroke: rgb(237, 237, 237); stroke-opacity: 1;"/></g><g class="point"><path d="M432.2,242.5V192.69H436.56V242.5Z" style="vector-effect: none; opacity: 1; stroke-width: 0.5px; fill: rgb(46, 46, 46); fill-opacity: 1; stroke: rgb(237, 237, 237); stroke-opacity: 1;"/></g><g class="point"><path d="M448.56,242.5V170.5H452.92V242.5Z" style="vector-effect: none; opacity: 1; stroke-width: 0.5px; fill: rgb(46, 46, 46); fill-opacity: 1; stroke: rgb(237, 237, 237); stroke-opacity: 1;"/></g><g class="point"><path d="M464.92,242.5V96.77H469.28V242.5Z" style="vector-effect: none; opacity: 1; stroke-width: 0.5px; fill: rgb(46, 46, 46); fill-opacity: 1; stroke: rgb(237, 237, 237); stroke-opacity: 1;"/></g><g class="point"><path d="M481.28,242.5V208.7H485.64V242.5Z" style="vector-effect: none; opacity: 1; stroke-width: 0.5px; fill: rgb(46, 46, 46); fill-opacity: 1; stroke: rgb(237, 237, 237); stroke-opacity: 1;"/></g></g></g><g class="trace bars" style="opacity: 1;"><g class="points"><g class="point"><path d="M11.24,242.5V235.06H15.61V242.5Z" style="vector-effect: none; opacity: 1; stroke-width: 0.5px; fill: rgb(252, 3, 3); fill-opacity: 1; stroke: rgb(237, 237, 237); stroke-opacity: 1;"/></g><g class="point"><path d="M27.6,242.5V238.16H31.96V242.5Z" style="vector-effect: none; opacity: 1; stroke-width: 0.5px; fill: rgb(252, 3, 3); fill-opacity: 1; stroke: rgb(237, 237, 237); stroke-opacity: 1;"/></g><g class="point"><path d="M43.96,242.5V238.41H48.32V242.5Z" style="vector-effect: none; opacity: 1; stroke-width: 0.5px; fill: rgb(252, 3, 3); fill-opacity: 1; stroke: rgb(237, 237, 237); stroke-opacity: 1;"/></g><g class="point"><path d="M60.32,242.5V240.32H64.68V242.5Z" style="vector-effect: none; opacity: 1; stroke-width: 0.5px; fill: rgb(252, 3, 3); fill-opacity: 1; stroke: rgb(237, 237, 237); stroke-opacity: 1;"/></g><g class="point"><path d="M76.68,242.5V236.58H81.04V242.5Z" style="vector-effect: none; opacity: 1; stroke-width: 0.5px; fill: rgb(252, 3, 3); fill-opacity: 1; stroke: rgb(237, 237, 237); stroke-opacity: 1;"/></g><g class="point"><path d="M93.04,242.5V238.71H97.4V242.5Z" style="vector-effect: none; opacity: 1; stroke-width: 0.5px; fill: rgb(252, 3, 3); fill-opacity: 1; stroke: rgb(237, 237, 237); stroke-opacity: 1;"/></g><g class="point"><path d="M109.39,242.5V239.97H113.76V242.5Z" style="vector-effect: none; opacity: 1; stroke-width: 0.5px; fill: rgb(252, 3, 3); fill-opacity: 1; stroke: rgb(237, 237, 237); stroke-opacity: 1;"/></g><g class="point"><path d="M125.75,242.5V239.44H130.12V242.5Z" style="vector-effect: none; opacity: 1; stroke-width: 0.5px; fill: rgb(252, 3, 3); fill-opacity: 1; stroke: rgb(237, 237, 237); stroke-opacity: 1;"/></g><g class="point"><path d="M142.11,242.5V240.19H146.47V242.5Z" style="vector-effect: none; opacity: 1; stroke-width: 0.5px; fill: rgb(252, 3, 3); fill-opacity: 1; stroke: rgb(237, 237, 237); stroke-opacity: 1;"/></g><g class="point"><path d="M158.47,242.5V240.6H162.83V242.5Z" style="vector-effect: none; opacity: 1; stroke-width: 0.5px; fill: rgb(252, 3, 3); fill-opacity: 1; stroke: rgb(237, 237, 237); stroke-opacity: 1;"/></g><g class="point"><path d="M174.83,242.5V238.7H179.19V242.5Z" style="vector-effect: none; opacity: 1; stroke-width: 0.5px; fill: rgb(252, 3, 3); fill-opacity: 1; stroke: rgb(237, 237, 237); stroke-opacity: 1;"/></g><g class="point"><path d="M191.19,242.5V241.4H195.55V242.5Z" style="vector-effect: none; opacity: 1; stroke-width: 0.5px; fill: rgb(252, 3, 3); fill-opacity: 1; stroke: rgb(237, 237, 237); stroke-opacity: 1;"/></g><g class="point"><path d="M207.55,242.5V239.91H211.91V242.5Z" style="vector-effect: none; opacity: 1; stroke-width: 0.5px; fill: rgb(252, 3, 3); fill-opacity: 1; stroke: rgb(237, 237, 237); stroke-opacity: 1;"/></g><g class="point"><path d="M223.9,242.5V239.99H228.27V242.5Z" style="vector-effect: none; opacity: 1; stroke-width: 0.5px; fill: rgb(252, 3, 3); fill-opacity: 1; stroke: rgb(237, 237, 237); stroke-opacity: 1;"/></g><g class="point"><path d="M240.26,242.5V239H244.62V242.5Z" style="vector-effect: none; opacity: 1; stroke-width: 0.5px; fill: rgb(252, 3, 3); fill-opacity: 1; stroke: rgb(237, 237, 237); stroke-opacity: 1;"/></g><g class="point"><path d="M256.62,242.5V237.37H260.98V242.5Z" style="vector-effect: none; opacity: 1; stroke-width: 0.5px; fill: rgb(252, 3, 3); fill-opacity: 1; stroke: rgb(237, 237, 237); stroke-opacity: 1;"/></g><g class="point"><path d="M272.98,242.5V240.92H277.34V242.5Z" style="vector-effect: none; opacity: 1; stroke-width: 0.5px; fill: rgb(252, 3, 3); fill-opacity: 1; stroke: rgb(237, 237, 237); stroke-opacity: 1;"/></g><g class="point"><path d="M289.34,242.5V240.23H293.7V242.5Z" style="vector-effect: none; opacity: 1; stroke-width: 0.5px; fill: rgb(252, 3, 3); fill-opacity: 1; stroke: rgb(237, 237, 237); stroke-opacity: 1;"/></g><g class="point"><path d="M305.7,242.5V241.45H310.06V242.5Z" style="vector-effect: none; opacity: 1; stroke-width: 0.5px; fill: rgb(252, 3, 3); fill-opacity: 1; stroke: rgb(237, 237, 237); stroke-opacity: 1;"/></g><g class="point"><path d="M322.05,242.5V241.17H326.42V242.5Z" style="vector-effect: none; opacity: 1; stroke-width: 0.5px; fill: rgb(252, 3, 3); fill-opacity: 1; stroke: rgb(237, 237, 237); stroke-opacity: 1;"/></g><g class="point"><path d="M338.41,242.5V241.35H342.78V242.5Z" style="vector-effect: none; opacity: 1; stroke-width: 0.5px; fill: rgb(252, 3, 3); fill-opacity: 1; stroke: rgb(237, 237, 237); stroke-opacity: 1;"/></g><g class="point"><path d="M354.77,242.5V241.3H359.13V242.5Z" style="vector-effect: none; opacity: 1; stroke-width: 0.5px; fill: rgb(252, 3, 3); fill-opacity: 1; stroke: rgb(237, 237, 237); stroke-opacity: 1;"/></g><g class="point"><path d="M371.13,242.5V240.75H375.49V242.5Z" style="vector-effect: none; opacity: 1; stroke-width: 0.5px; fill: rgb(252, 3, 3); fill-opacity: 1; stroke: rgb(237, 237, 237); stroke-opacity: 1;"/></g><g class="point"><path d="M387.49,242.5V239.77H391.85V242.5Z" style="vector-effect: none; opacity: 1; stroke-width: 0.5px; fill: rgb(252, 3, 3); fill-opacity: 1; stroke: rgb(237, 237, 237); stroke-opacity: 1;"/></g><g class="point"><path d="M403.85,242.5V241.58H408.21V242.5Z" style="vector-effect: none; opacity: 1; stroke-width: 0.5px; fill: rgb(252, 3, 3); fill-opacity: 1; stroke: rgb(237, 237, 237); stroke-opacity: 1;"/></g><g class="point"><path d="M420.21,242.5V242.08H424.57V242.5Z" style="vector-effect: none; opacity: 1; stroke-width: 0.5px; fill: rgb(252, 3, 3); fill-opacity: 1; stroke: rgb(237, 237, 237); stroke-opacity: 1;"/></g><g class="point"><path d="M436.56,242.5V241.03H440.93V242.5Z" style="vector-effect: none; opacity: 1; stroke-width: 0.5px; fill: rgb(252, 3, 3); fill-opacity: 1; stroke: rgb(237, 237, 237); stroke-opacity: 1;"/></g><g class="point"><path d="M452.92,242.5V240.3H457.28V242.5Z" style="vector-effect: none; opacity: 1; stroke-width: 0.5px; fill: rgb(252, 3, 3); fill-opacity: 1; stroke: rgb(237, 237, 237); stroke-opacity: 1;"/></g><g class="point"><path d="M469.28,242.5V239.02H473.64V242.5Z" style="vector-effect: none; opacity: 1; stroke-width: 0.5px; fill: rgb(252, 3, 3); fill-opacity: 1; stroke: rgb(237, 237, 237); stroke-opacity: 1;"/></g><g class="point"><path d="M485.64,242.5V241.43H490V242.5Z" style="vector-effect: none; opacity: 1; stroke-width: 0.5px; fill: rgb(252, 3, 3); fill-opacity: 1; stroke: rgb(237, 237, 237); stroke-opacity: 1;"/></g></g></g><g class="trace bars" style="opacity: 1;"><g class="points"><g class="point"><path d="M15.61,242.5V242.47H19.97V242.5Z" style="vector-effect: none; opacity: 1; stroke-width: 0.5px; fill: rgb(211, 211, 211); fill-opacity: 1; stroke: rgb(237, 237, 237); stroke-opacity: 1;"/></g><g class="point"><path d="M31.96,242.5V242.43H36.33V242.5Z" style="vector-effect: none; opacity: 1; stroke-width: 0.5px; fill: rgb(211, 211, 211); fill-opacity: 1; stroke: rgb(237, 237, 237); stroke-opacity: 1;"/></g><g class="point"><path d="M48.32,242.5V242.5H52.68V242.5Z" style="vector-effect: none; opacity: 1; stroke-width: 0.5px; fill: rgb(211, 211, 211); fill-opacity: 1; stroke: rgb(237, 237, 237); stroke-opacity: 1;"/></g><g class="point"><path d="M64.68,242.5V242.4H69.04V242.5Z" style="vector-effect: none; opacity: 1; stroke-width: 0.5px; fill: rgb(211, 211, 211); fill-opacity: 1; stroke: rgb(237, 237, 237); stroke-opacity: 1;"/></g><g class="point"><path d="M81.04,242.5V242.44H85.4V242.5Z" style="vector-effect: none; opacity: 1; stroke-width: 0.5px; fill: rgb(211, 211, 211); fill-opacity: 1; stroke: rgb(237, 237, 237); stroke-opacity: 1;"/></g><g class="point"><path d="M97.4,242.5V242.44H101.76V242.5Z" style="vector-effect: none; opacity: 1; stroke-width: 0.5px; fill: rgb(211, 211, 211); fill-opacity: 1; stroke: rgb(237, 237, 237); stroke-opacity: 1;"/></g><g class="point"><path d="M113.76,242.5V242.39H118.12V242.5Z" style="vector-effect: none; opacity: 1; stroke-width: 0.5px; fill: rgb(211, 211, 211); fill-opacity: 1; stroke: rgb(237, 237, 237); stroke-opacity: 1;"/></g><g class="point"><path d="M130.12,242.5V242.49H134.48V242.5Z" style="vector-effect: none; opacity: 1; stroke-width: 0.5px; fill: rgb(211, 211, 211); fill-opacity: 1; stroke: rgb(237, 237, 237); stroke-opacity: 1;"/></g><g class="point"><path d="M146.47,242.5V242.4H150.84V242.5Z" style="vector-effect: none; opacity: 1; stroke-width: 0.5px; fill: rgb(211, 211, 211); fill-opacity: 1; stroke: rgb(237, 237, 237); stroke-opacity: 1;"/></g><g class="point"><path d="M162.83,242.5V242.37H167.19V242.5Z" style="vector-effect: none; opacity: 1; stroke-width: 0.5px; fill: rgb(211, 211, 211); fill-opacity: 1; stroke: rgb(237, 237, 237); stroke-opacity: 1;"/></g><g class="point"><path d="M179.19,242.5V242.39H183.55V242.5Z" style="vector-effect: none; opacity: 1; stroke-width: 0.5px; fill: rgb(211, 211, 211); fill-opacity: 1; stroke: rgb(237, 237, 237); stroke-opacity: 1;"/></g><g class="point"><path d="M195.55,242.5V242.44H199.91V242.5Z" style="vector-effect: none; opacity: 1; stroke-width: 0.5px; fill: rgb(211, 211, 211); fill-opacity: 1; stroke: rgb(237, 237, 237); stroke-opacity: 1;"/></g><g class="point"><path d="M211.91,242.5V242.38H216.27V242.5Z" style="vector-effect: none; opacity: 1; stroke-width: 0.5px; fill: rgb(211, 211, 211); fill-opacity: 1; stroke: rgb(237, 237, 237); stroke-opacity: 1;"/></g><g class="point"><path d="M228.27,242.5V242.43H232.63V242.5Z" style="vector-effect: none; opacity: 1; stroke-width: 0.5px; fill: rgb(211, 211, 211); fill-opacity: 1; stroke: rgb(237, 237, 237); stroke-opacity: 1;"/></g><g class="point"><path d="M244.62,242.5V242.46H248.99V242.5Z" style="vector-effect: none; opacity: 1; stroke-width: 0.5px; fill: rgb(211, 211, 211); fill-opacity: 1; stroke: rgb(237, 237, 237); stroke-opacity: 1;"/></g><g class="point"><path d="M260.98,242.5V242.5H265.35V242.5Z" style="vector-effect: none; opacity: 1; stroke-width: 0.5px; fill: rgb(211, 211, 211); fill-opacity: 1; stroke: rgb(237, 237, 237); stroke-opacity: 1;"/></g><g class="point"><path d="M277.34,242.5V242.43H281.7V242.5Z" style="vector-effect: none; opacity: 1; stroke-width: 0.5px; fill: rgb(211, 211, 211); fill-opacity: 1; stroke: rgb(237, 237, 237); stroke-opacity: 1;"/></g><g class="point"><path d="M293.7,242.5V242.42H298.06V242.5Z" style="vector-effect: none; opacity: 1; stroke-width: 0.5px; fill: rgb(211, 211, 211); fill-opacity: 1; stroke: rgb(237, 237, 237); stroke-opacity: 1;"/></g><g class="point"><path d="M310.06,242.5V242.44H314.42V242.5Z" style="vector-effect: none; opacity: 1; stroke-width: 0.5px; fill: rgb(211, 211, 211); fill-opacity: 1; stroke: rgb(237, 237, 237); stroke-opacity: 1;"/></g><g class="point"><path d="M326.42,242.5V242.44H330.78V242.5Z" style="vector-effect: none; opacity: 1; stroke-width: 0.5px; fill: rgb(211, 211, 211); fill-opacity: 1; stroke: rgb(237, 237, 237); stroke-opacity: 1;"/></g><g class="point"><path d="M342.78,242.5V242.39H347.14V242.5Z" style="vector-effect: none; opacity: 1; stroke-width: 0.5px; fill: rgb(211, 211, 211); fill-opacity: 1; stroke: rgb(237, 237, 237); stroke-opacity: 1;"/></g><g class="point"><path d="M359.13,242.5V242.46H363.5V242.5Z" style="vector-effect: none; opacity: 1; stroke-width: 0.5px; fill: rgb(211, 211, 211); fill-opacity: 1; stroke: rgb(237, 237, 237); stroke-opacity: 1;"/></g><g class="point"><path d="M375.49,242.5V242.38H379.85V242.5Z" style="vector-effect: none; opacity: 1; stroke-width: 0.5px; fill: rgb(211, 211, 211); fill-opacity: 1; stroke: rgb(237, 237, 237); stroke-opacity: 1;"/></g><g class="point"><path d="M391.85,242.5V242.37H396.21V242.5Z" style="vector-effect: none; opacity: 1; stroke-width: 0.5px; fill: rgb(211, 211, 211); fill-opacity: 1; stroke: rgb(237, 237, 237); stroke-opacity: 1;"/></g><g class="point"><path d="M408.21,242.5V242.44H412.57V242.5Z" style="vector-effect: none; opacity: 1; stroke-width: 0.5px; fill: rgb(211, 211, 211); fill-opacity: 1; stroke: rgb(237, 237, 237); stroke-opacity: 1;"/></g><g class="point"><path d="M424.57,242.5V242.48H428.93V242.5Z" style="vector-effect: none; opacity: 1; stroke-width: 0.5px; fill: rgb(211, 211, 211); fill-opacity: 1; stroke: rgb(237, 237, 237); stroke-opacity: 1;"/></g><g class="point"><path d="M440.93,242.5V242.39H445.29V242.5Z" style="vector-effect: none; opacity: 1; stroke-width: 0.5px; fill: rgb(211, 211, 211); fill-opacity: 1; stroke: rgb(237, 237, 237); stroke-opacity: 1;"/></g><g class="point"><path d="M457.28,242.5V242.38H461.65V242.5Z" style="vector-effect: none; opacity: 1; stroke-width: 0.5px; fill: rgb(211, 211, 211); fill-opacity: 1; stroke: rgb(237, 237, 237); stroke-opacity: 1;"/></g><g class="point"><path d="M473.64,242.5V242.41H478.01V242.5Z" style="vector-effect: none; opacity: 1; stroke-width: 0.5px; fill: rgb(211, 211, 211); fill-opacity: 1; stroke: rgb(237, 237, 237); stroke-opacity: 1;"/></g><g class="point"><path d="M490,242.5V242.43H494.36V242.5Z" style="vector-effect: none; opacity: 1; stroke-width: 0.5px; fill: rgb(211, 211, 211); fill-opacity: 1; stroke: rgb(237, 237, 237); stroke-opacity: 1;"/></g></g></g></g></g><g class="overplot"/><path class="xlines-above crisp" d="M79,367.5H576" style="fill: none; stroke-width: 1px; stroke: rgb(0, 0, 0); stroke-opacity: 1;"/><path class="ylines-above crisp" d="M79.5,100V367" style="fill: none; stroke-width: 1px; stroke: rgb(0, 0, 0); stroke-opacity: 1;"/><g class="overlines-above"/><g class="xaxislayer-above"><path class="xtick ticks crisp" d="M0,368v5" transform="translate(93.42,0)" style="stroke: rgb(51, 51, 51); stroke-opacity: 1; stroke-width: 1px;"/><path class="xtick ticks crisp" d="M0,368v5" transform="translate(109.78,0)" style="stroke: rgb(51, 51, 51); stroke-opacity: 1; stroke-width: 1px;"/><path class="xtick ticks crisp" d="M0,368v5" transform="translate(126.14,0)" style="stroke: rgb(51, 51, 51); stroke-opacity: 1; stroke-width: 1px;"/><path class="xtick ticks crisp" d="M0,368v5" transform="translate(142.5,0)" style="stroke: rgb(51, 51, 51); stroke-opacity: 1; stroke-width: 1px;"/><path class="xtick ticks crisp" d="M0,368v5" transform="translate(158.86,0)" style="stroke: rgb(51, 51, 51); stroke-opacity: 1; stroke-width: 1px;"/><path class="xtick ticks crisp" d="M0,368v5" transform="translate(175.22,0)" style="stroke: rgb(51, 51, 51); stroke-opacity: 1; stroke-width: 1px;"/><path class="xtick ticks crisp" d="M0,368v5" transform="translate(191.57999999999998,0)" style="stroke: rgb(51, 51, 51); stroke-opacity: 1; stroke-width: 1px;"/><path class="xtick ticks crisp" d="M0,368v5" transform="translate(207.93,0)" style="stroke: rgb(51, 51, 51); stroke-opacity: 1; stroke-width: 1px;"/><path class="xtick ticks crisp" d="M0,368v5" transform="translate(224.29,0)" style="stroke: rgb(51, 51, 51); stroke-opacity: 1; stroke-width: 1px;"/><path class="xtick ticks crisp" d="M0,368v5" transform="translate(240.65,0)" style="stroke: rgb(51, 51, 51); stroke-opacity: 1; stroke-width: 1px;"/><path class="xtick ticks crisp" d="M0,368v5" transform="translate(257.01,0)" style="stroke: rgb(51, 51, 51); stroke-opacity: 1; stroke-width: 1px;"/><path class="xtick ticks crisp" d="M0,368v5" transform="translate(273.37,0)" style="stroke: rgb(51, 51, 51); stroke-opacity: 1; stroke-width: 1px;"/><path class="xtick ticks crisp" d="M0,368v5" transform="translate(289.73,0)" style="stroke: rgb(51, 51, 51); stroke-opacity: 1; stroke-width: 1px;"/><path class="xtick ticks crisp" d="M0,368v5" transform="translate(306.08000000000004,0)" style="stroke: rgb(51, 51, 51); stroke-opacity: 1; stroke-width: 1px;"/><path class="xtick ticks crisp" d="M0,368v5" transform="translate(322.44,0)" style="stroke: rgb(51, 51, 51); stroke-opacity: 1; stroke-width: 1px;"/><path class="xtick ticks crisp" d="M0,368v5" transform="translate(338.8,0)" style="stroke: rgb(51, 51, 51); stroke-opacity: 1; stroke-width: 1px;"/><path class="xtick ticks crisp" d="M0,368v5" transform="translate(355.16,0)" style="stroke: rgb(51, 51, 51); stroke-opacity: 1; stroke-width: 1px;"/><path class="xtick ticks crisp" d="M0,368v5" transform="translate(371.52,0)" style="stroke: rgb(51, 51, 51); stroke-opacity: 1; stroke-width: 1px;"/><path class="xtick ticks crisp" d="M0,368v5" transform="translate(387.88,0)" style="stroke: rgb(51, 51, 51); stroke-opacity: 1; stroke-width: 1px;"/><path class="xtick ticks crisp" d="M0,368v5" transform="translate(404.24,0)" style="stroke: rgb(51, 51, 51); stroke-opacity: 1; stroke-width: 1px;"/><path class="xtick ticks crisp" d="M0,368v5" transform="translate(420.59,0)" style="stroke: rgb(51, 51, 51); stroke-opacity: 1; stroke-width: 1px;"/><path class="xtick ticks crisp" d="M0,368v5" transform="translate(436.95,0)" style="stroke: rgb(51, 51, 51); stroke-opacity: 1; stroke-width: 1px;"/><path class="xtick ticks crisp" d="M0,368v5" transform="translate(453.31,0)" style="stroke: rgb(51, 51, 51); stroke-opacity: 1; stroke-width: 1px;"/><path class="xtick ticks crisp" d="M0,368v5" transform="translate(469.67,0)" style="stroke: rgb(51, 51, 51); stroke-opacity: 1; stroke-width: 1px;"/><path class="xtick ticks crisp" d="M0,368v5" transform="translate(486.03,0)" style="stroke: rgb(51, 51, 51); stroke-opacity: 1; stroke-width: 1px;"/><path class="xtick ticks crisp" d="M0,368v5" transform="translate(502.39,0)" style="stroke: rgb(51, 51, 51); stroke-opacity: 1; stroke-width: 1px;"/><path class="xtick ticks crisp" d="M0,368v5" transform="translate(518.75,0)" style="stroke: rgb(51, 51, 51); stroke-opacity: 1; stroke-width: 1px;"/><path class="xtick ticks crisp" d="M0,368v5" transform="translate(535.1,0)" style="stroke: rgb(51, 51, 51); stroke-opacity: 1; stroke-width: 1px;"/><path class="xtick ticks crisp" d="M0,368v5" transform="translate(551.46,0)" style="stroke: rgb(51, 51, 51); stroke-opacity: 1; stroke-width: 1px;"/><path class="xtick ticks crisp" d="M0,368v5" transform="translate(567.8199999999999,0)" style="stroke: rgb(51, 51, 51); stroke-opacity: 1; stroke-width: 1px;"/><g class="xtick"><text text-anchor="start" x="0" y="387.4" transform="translate(93.42,0) rotate(90,0,381.4)" style="font-family: 'Franklin Gothic'; font-size: 12px; fill: rgb(51, 51, 51); fill-opacity: 1; white-space: pre; opacity: 1;">gaming</text></g><g class="xtick"><text text-anchor="start" x="0" y="387.4" transform="translate(109.78,0) rotate(90,0,381.4)" style="font-family: 'Franklin Gothic'; font-size: 12px; fill: rgb(51, 51, 51); fill-opacity: 1; white-space: pre; opacity: 1;">minecraft</text></g><g class="xtick"><text text-anchor="start" x="0" y="387.4" transform="translate(126.14,0) rotate(90,0,381.4)" style="font-family: 'Franklin Gothic'; font-size: 12px; fill: rgb(51, 51, 51); fill-opacity: 1; white-space: pre; opacity: 1;">gameplay</text></g><g class="xtick"><text text-anchor="start" x="0" y="387.4" transform="translate(142.5,0) rotate(90,0,381.4)" style="font-family: 'Franklin Gothic'; font-size: 12px; fill: rgb(51, 51, 51); fill-opacity: 1; white-space: pre; opacity: 1;">free fire</text></g><g class="xtick"><text text-anchor="start" x="0" y="387.4" transform="translate(158.86,0) rotate(90,0,381.4)" style="font-family: 'Franklin Gothic'; font-size: 12px; fill: rgb(51, 51, 51); fill-opacity: 1; white-space: pre; opacity: 1;">funny</text></g><g class="xtick"><text text-anchor="start" x="0" y="387.4" transform="translate(175.22,0) rotate(90,0,381.4)" style="font-family: 'Franklin Gothic'; font-size: 12px; fill: rgb(51, 51, 51); fill-opacity: 1; white-space: pre; opacity: 1;">roblox</text></g><g class="xtick"><text text-anchor="start" x="0" y="387.4" transform="translate(191.57999999999998,0) rotate(90,0,381.4)" style="font-family: 'Franklin Gothic'; font-size: 12px; fill: rgb(51, 51, 51); fill-opacity: 1; white-space: pre; opacity: 1;">games</text></g><g class="xtick"><text text-anchor="start" x="0" y="387.4" transform="translate(207.93,0) rotate(90,0,381.4)" style="font-family: 'Franklin Gothic'; font-size: 12px; fill: rgb(51, 51, 51); fill-opacity: 1; white-space: pre; opacity: 1;">gta 5</text></g><g class="xtick"><text text-anchor="start" x="0" y="387.4" transform="translate(224.29,0) rotate(90,0,381.4)" style="font-family: 'Franklin Gothic'; font-size: 12px; fill: rgb(51, 51, 51); fill-opacity: 1; white-space: pre; opacity: 1;">gta</text></g><g class="xtick"><text text-anchor="start" x="0" y="387.4" transform="translate(240.65,0) rotate(90,0,381.4)" style="font-family: 'Franklin Gothic'; font-size: 12px; fill: rgb(51, 51, 51); fill-opacity: 1; white-space: pre; opacity: 1;">Gaming</text></g><g class="xtick"><text text-anchor="start" x="0" y="387.4" transform="translate(257.01,0) rotate(90,0,381.4)" style="font-family: 'Franklin Gothic'; font-size: 12px; fill: rgb(51, 51, 51); fill-opacity: 1; white-space: pre; opacity: 1;">game</text></g><g class="xtick"><text text-anchor="start" x="0" y="387.4" transform="translate(273.37,0) rotate(90,0,381.4)" style="font-family: 'Franklin Gothic'; font-size: 12px; fill: rgb(51, 51, 51); fill-opacity: 1; white-space: pre; opacity: 1;">garena free fire</text></g><g class="xtick"><text text-anchor="start" x="0" y="387.4" transform="translate(289.73,0) rotate(90,0,381.4)" style="font-family: 'Franklin Gothic'; font-size: 12px; fill: rgb(51, 51, 51); fill-opacity: 1; white-space: pre; opacity: 1;">gta v</text></g><g class="xtick"><text text-anchor="start" x="0" y="387.4" transform="translate(306.08000000000004,0) rotate(90,0,381.4)" style="font-family: 'Franklin Gothic'; font-size: 12px; fill: rgb(51, 51, 51); fill-opacity: 1; white-space: pre; opacity: 1;">ps5</text></g><g class="xtick"><text text-anchor="start" x="0" y="387.4" transform="translate(322.44,0) rotate(90,0,381.4)" style="font-family: 'Franklin Gothic'; font-size: 12px; fill: rgb(51, 51, 51); fill-opacity: 1; white-space: pre; opacity: 1;">fun</text></g><g class="xtick"><text text-anchor="start" x="0" y="387.4" transform="translate(338.8,0) rotate(90,0,381.4)" style="font-family: 'Franklin Gothic'; font-size: 12px; fill: rgb(51, 51, 51); fill-opacity: 1; white-space: pre; opacity: 1;">shorts</text></g><g class="xtick"><text text-anchor="start" x="0" y="387.4" transform="translate(355.16,0) rotate(90,0,381.4)" style="font-family: 'Franklin Gothic'; font-size: 12px; fill: rgb(51, 51, 51); fill-opacity: 1; white-space: pre; opacity: 1;">live</text></g><g class="xtick"><text text-anchor="start" x="0" y="387.4" transform="translate(371.52,0) rotate(90,0,381.4)" style="font-family: 'Franklin Gothic'; font-size: 12px; fill: rgb(51, 51, 51); fill-opacity: 1; white-space: pre; opacity: 1;">pc</text></g><g class="xtick"><text text-anchor="start" x="0" y="387.4" transform="translate(387.88,0) rotate(90,0,381.4)" style="font-family: 'Franklin Gothic'; font-size: 12px; fill: rgb(51, 51, 51); fill-opacity: 1; white-space: pre; opacity: 1;">total gaming</text></g><g class="xtick"><text text-anchor="start" x="0" y="387.4" transform="translate(404.24,0) rotate(90,0,381.4)" style="font-family: 'Franklin Gothic'; font-size: 12px; fill: rgb(51, 51, 51); fill-opacity: 1; white-space: pre; opacity: 1;">pubg</text></g><g class="xtick"><text text-anchor="start" x="0" y="387.4" transform="translate(420.59,0) rotate(90,0,381.4)" style="font-family: 'Franklin Gothic'; font-size: 12px; fill: rgb(51, 51, 51); fill-opacity: 1; white-space: pre; opacity: 1;">bgmi</text></g><g class="xtick"><text text-anchor="start" x="0" y="387.4" transform="translate(436.95,0) rotate(90,0,381.4)" style="font-family: 'Franklin Gothic'; font-size: 12px; fill: rgb(51, 51, 51); fill-opacity: 1; white-space: pre; opacity: 1;">pubg mobile</text></g><g class="xtick"><text text-anchor="start" x="0" y="387.4" transform="translate(453.31,0) rotate(90,0,381.4)" style="font-family: 'Franklin Gothic'; font-size: 12px; fill: rgb(51, 51, 51); fill-opacity: 1; white-space: pre; opacity: 1;">guide</text></g><g class="xtick"><text text-anchor="start" x="0" y="387.4" transform="translate(469.67,0) rotate(90,0,381.4)" style="font-family: 'Franklin Gothic'; font-size: 12px; fill: rgb(51, 51, 51); fill-opacity: 1; white-space: pre; opacity: 1;">video games</text></g><g class="xtick"><text text-anchor="start" x="0" y="387.4" transform="translate(486.03,0) rotate(90,0,381.4)" style="font-family: 'Franklin Gothic'; font-size: 12px; fill: rgb(51, 51, 51); fill-opacity: 1; white-space: pre; opacity: 1;">free fire live</text></g><g class="xtick"><text text-anchor="start" x="0" y="387.4" transform="translate(502.39,0) rotate(90,0,381.4)" style="font-family: 'Franklin Gothic'; font-size: 12px; fill: rgb(51, 51, 51); fill-opacity: 1; white-space: pre; opacity: 1;">funny moments</text></g><g class="xtick"><text text-anchor="start" x="0" y="387.4" transform="translate(518.75,0) rotate(90,0,381.4)" style="font-family: 'Franklin Gothic'; font-size: 12px; fill: rgb(51, 51, 51); fill-opacity: 1; white-space: pre; opacity: 1;">gamer</text></g><g class="xtick"><text text-anchor="start" x="0" y="387.4" transform="translate(535.1,0) rotate(90,0,381.4)" style="font-family: 'Franklin Gothic'; font-size: 12px; fill: rgb(51, 51, 51); fill-opacity: 1; white-space: pre; opacity: 1;">techno gamerz</text></g><g class="xtick"><text text-anchor="start" x="0" y="387.4" transform="translate(551.46,0) rotate(90,0,381.4)" style="font-family: 'Franklin Gothic'; font-size: 12px; fill: rgb(51, 51, 51); fill-opacity: 1; white-space: pre; opacity: 1;">how to</text></g><g class="xtick"><text text-anchor="start" x="0" y="387.4" transform="translate(567.8199999999999,0) rotate(90,0,381.4)" style="font-family: 'Franklin Gothic'; font-size: 12px; fill: rgb(51, 51, 51); fill-opacity: 1; white-space: pre; opacity: 1;">Gameplay</text></g></g><g class="yaxislayer-above"><path class="ytick ticks crisp" d="M79,0h-5" transform="translate(0,342.5)" style="stroke: rgb(51, 51, 51); stroke-opacity: 1; stroke-width: 1px;"/><path class="ytick ticks crisp" d="M79,0h-5" transform="translate(0,301.31)" style="stroke: rgb(51, 51, 51); stroke-opacity: 1; stroke-width: 1px;"/><path class="ytick ticks crisp" d="M79,0h-5" transform="translate(0,260.13)" style="stroke: rgb(51, 51, 51); stroke-opacity: 1; stroke-width: 1px;"/><path class="ytick ticks crisp" d="M79,0h-5" transform="translate(0,218.94)" style="stroke: rgb(51, 51, 51); stroke-opacity: 1; stroke-width: 1px;"/><path class="ytick ticks crisp" d="M79,0h-5" transform="translate(0,177.75)" style="stroke: rgb(51, 51, 51); stroke-opacity: 1; stroke-width: 1px;"/><path class="ytick ticks crisp" d="M79,0h-5" transform="translate(0,136.56)" style="stroke: rgb(51, 51, 51); stroke-opacity: 1; stroke-width: 1px;"/><g class="ytick"><text text-anchor="end" x="71.6" y="4.199999999999999" transform="translate(0,342.5)" style="font-family: 'Franklin Gothic'; font-size: 12px; fill: rgb(51, 51, 51); fill-opacity: 1; white-space: pre; opacity: 1;">0</text></g><g class="ytick"><text text-anchor="end" x="71.6" y="4.199999999999999" style="font-family: 'Franklin Gothic'; font-size: 12px; fill: rgb(51, 51, 51); fill-opacity: 1; white-space: pre; opacity: 1;" transform="translate(0,301.31)">20M</text></g><g class="ytick"><text text-anchor="end" x="71.6" y="4.199999999999999" style="font-family: 'Franklin Gothic'; font-size: 12px; fill: rgb(51, 51, 51); fill-opacity: 1; white-space: pre; opacity: 1;" transform="translate(0,260.13)">40M</text></g><g class="ytick"><text text-anchor="end" x="71.6" y="4.199999999999999" style="font-family: 'Franklin Gothic'; font-size: 12px; fill: rgb(51, 51, 51); fill-opacity: 1; white-space: pre; opacity: 1;" transform="translate(0,218.94)">60M</text></g><g class="ytick"><text text-anchor="end" x="71.6" y="4.199999999999999" style="font-family: 'Franklin Gothic'; font-size: 12px; fill: rgb(51, 51, 51); fill-opacity: 1; white-space: pre; opacity: 1;" transform="translate(0,177.75)">80M</text></g><g class="ytick"><text text-anchor="end" x="71.6" y="4.199999999999999" style="font-family: 'Franklin Gothic'; font-size: 12px; fill: rgb(51, 51, 51); fill-opacity: 1; white-space: pre; opacity: 1;" transform="translate(0,136.56)">100M</text></g></g><g class="overaxes-above"/></g></g><g class="polarlayer"/><g class="smithlayer"/><g class="ternarylayer"/><g class="geolayer"/><g class="funnelarealayer"/><g class="pielayer"/><g class="iciclelayer"/><g class="treemaplayer"/><g class="sunburstlayer"/><g class="glimages"/><defs id="topdefs-ff4795"><g class="clips"/><clipPath id="legendff4795"><rect width="102" height="67" x="0" y="0"/></clipPath></defs><g class="layer-above"><g class="imagelayer"/><g class="shapelayer"/></g><g class="infolayer"><g class="legend" pointer-events="all" transform="translate(585.9200000000001,100)"><rect class="bg" shape-rendering="crispEdges" style="stroke: rgb(68, 68, 68); stroke-opacity: 1; fill: rgb(255, 255, 255); fill-opacity: 1; stroke-width: 0px;" width="102" height="67" x="0" y="0"/><g class="scrollbox" transform="" clip-path="url(#legendff4795)"><g class="groups"><g class="traces" transform="translate(0,14.5)" style="opacity: 1;"><text class="legendtext" text-anchor="start" x="40" y="4.680000000000001" style="font-family: 'Franklin Gothic'; font-size: 12px; fill: rgb(51, 51, 51); fill-opacity: 1; white-space: pre;">Views</text><g class="layers" style="opacity: 1;"><g class="legendfill"/><g class="legendlines"/><g class="legendsymbols"><g class="legendpoints"><path class="legendundefined" d="M6,6H-6V-6H6Z" transform="translate(20,0)" style="stroke-width: 0.5px; fill: rgb(46, 46, 46); fill-opacity: 1; stroke: rgb(237, 237, 237); stroke-opacity: 1;"/></g></g></g><rect class="legendtoggle" x="0" y="-9.5" width="96.84375" height="19" style="fill: rgb(0, 0, 0); fill-opacity: 0;"/></g><g class="traces" transform="translate(0,33.5)" style="opacity: 1;"><text class="legendtext" text-anchor="start" x="40" y="4.680000000000001" style="font-family: 'Franklin Gothic'; font-size: 12px; fill: rgb(51, 51, 51); fill-opacity: 1; white-space: pre;">Likes</text><g class="layers" style="opacity: 1;"><g class="legendfill"/><g class="legendlines"/><g class="legendsymbols"><g class="legendpoints"><path class="legendundefined" d="M6,6H-6V-6H6Z" transform="translate(20,0)" style="stroke-width: 0.5px; fill: rgb(252, 3, 3); fill-opacity: 1; stroke: rgb(237, 237, 237); stroke-opacity: 1;"/></g></g></g><rect class="legendtoggle" x="0" y="-9.5" width="96.84375" height="19" style="fill: rgb(0, 0, 0); fill-opacity: 0;"/></g><g class="traces" transform="translate(0,52.5)" style="opacity: 1;"><text class="legendtext" text-anchor="start" x="40" y="4.680000000000001" style="font-family: 'Franklin Gothic'; font-size: 12px; fill: rgb(51, 51, 51); fill-opacity: 1; white-space: pre;">Comments</text><g class="layers" style="opacity: 1;"><g class="legendfill"/><g class="legendlines"/><g class="legendsymbols"><g class="legendpoints"><path class="legendundefined" d="M6,6H-6V-6H6Z" transform="translate(20,0)" style="stroke-width: 0.5px; fill: rgb(211, 211, 211); fill-opacity: 1; stroke: rgb(237, 237, 237); stroke-opacity: 1;"/></g></g></g><rect class="legendtoggle" x="0" y="-9.5" width="96.84375" height="19" style="fill: rgb(0, 0, 0); fill-opacity: 0;"/></g></g></g><rect class="scrollbar" rx="20" ry="3" width="0" height="0" style="fill: rgb(128, 139, 164); fill-opacity: 1;" x="0" y="0"/></g><g class="g-gtitle"><text class="gtitle" x="350" y="50" text-anchor="middle" dy="0em" style="font-family: 'Franklin Gothic'; font-size: 17px; fill: rgb(51, 51, 51); opacity: 1; font-weight: normal; white-space: pre;">Views, Likes &amp; comments per Tag</text></g><g class="g-xtitle"><text class="xtitle" x="328" y="487.153515625" text-anchor="middle" style="font-family: 'Franklin Gothic'; font-size: 14px; fill: rgb(51, 51, 51); opacity: 1; font-weight: normal; white-space: pre;">Tags</text></g><g class="g-ytitle"><text class="ytitle" transform="rotate(-90,16.575000000000003,233.5)" x="16.575000000000003" y="233.5" text-anchor="middle" style="font-family: 'Franklin Gothic'; font-size: 14px; fill: rgb(51, 51, 51); opacity: 1; font-weight: normal; white-space: pre;">Views, Likes &amp; Comments</text></g><g class="annotation" data-index="0" style="opacity: 1;"><g class="annotation-text-g" transform="rotate(0,328.8,312.5)"><g class="cursor-pointer" transform="translate(191,296)"><rect class="bg" x="0.5" y="0.5" width="274" height="33" style="stroke-width: 1px; stroke: rgb(0, 0, 0); stroke-opacity: 0; fill: rgb(0, 0, 0); fill-opacity: 0;"/><text class="annotation-text" text-anchor="middle" x="138.203125" y="13" style="font-family: 'Franklin Gothic'; font-size: 12px; fill: rgb(51, 51, 51); fill-opacity: 1; white-space: pre;"><tspan class="line" dy="0em" x="138.203125" y="13">We can find that the shorts in gaming now are more </tspan><tspan class="line" dy="1.3em" x="138.203125" y="13">popular now than lives.</tspan></text></g></g><g class="annotation-arrow-g" style="opacity: 1;"><path d="M334.3,329L338.8,342.5" style="stroke-width: 2px; stroke: rgb(68, 68, 68); stroke-opacity: 1; stroke-dasharray: 0px, 0px, 13.0302px, 14.2302px;"/><path d="M-2.4,-3V3L0.6,0Z" transform="translate(338.4205017089844,341.361572265625)rotate(71.57058005668189)scale(2)" style="fill: rgb(68, 68, 68); stroke-width: 0;"/></g></g><g class="annotation" data-index="1" style="opacity: 1;"><g class="annotation-text-g" transform="rotate(0,142.5,342.5)"><g class="cursor-pointer" transform="translate(80,318)"><rect class="bg" x="0.5" y="0.5" width="124" height="48" style="stroke-width: 1px; stroke: rgb(0, 0, 0); stroke-opacity: 0; fill: rgb(0, 0, 0); fill-opacity: 0;"/><text class="annotation-text" text-anchor="middle" x="62.171875" y="13" style="font-family: 'Franklin Gothic'; font-size: 12px; fill: rgb(51, 51, 51); fill-opacity: 1; white-space: pre;"><tspan class="line" dy="0em" x="62.171875" y="13">Looks like people looks</tspan><tspan class="line" dy="1.3em" x="62.171875" y="13"> for gameplay videos</tspan><tspan class="line" dy="2.6em" x="62.171875" y="13">more than funny ones.</tspan></text></g></g></g></g></svg>