<svg class="main-svg" xmlns="http://www.w3.org/2000/svg" xmlns:xlink="http://www.w3.org/1999/xlink" width="1000" height="400" style="" viewBox="0 0 1000 400"><rect x="0" y="0" width="1000" height="400" style="fill: rgb(255, 255, 255); fill-opacity: 1;"/><defs id="defs-17d1c2"><g class="clips"><clipPath id="clip17d1c2xyplot" class="plotclip"><rect width="705" height="220"/></clipPath><clipPath class="axesclip" id="clip17d1c2x"><rect x="80" y="0" width="705" height="400"/></clipPath><clipPath class="axesclip" id="clip17d1c2y"><rect x="0" y="100" width="1000" height="220"/></clipPath><clipPath class="axesclip" id="clip17d1c2xy"><rect x="80" y="100" width="705" height="220"/></clipPath></g><g class="gradients"/><g class="patterns"/></defs><g class="bglayer"><rect class="bg" x="80" y="100" width="705" height="220" style="fill: rgb(237, 237, 237); fill-opacity: 1; stroke-width: 0;"/></g><g class="layer-below"><g class="imagelayer"/><g class="shapelayer"/></g><g class="cartesianlayer"><g class="subplot xy"><g class="layer-subplot"><g class="shapelayer"/><g class="imagelayer"/></g><g class="minor-gridlayer"><g class="x"/><g class="y"/></g><g class="gridlayer"><g class="x"><path class="xgrid crisp" transform="translate(125.82,0)" d="M0,100v220" style="stroke: rgb(169, 169, 169); stroke-opacity: 1; stroke-width: 1px;"/><path class="xgrid crisp" transform="translate(216.97,0)" d="M0,100v220" style="stroke: rgb(169, 169, 169); stroke-opacity: 1; stroke-width: 1px;"/><path class="xgrid crisp" transform="translate(307.86,0)" d="M0,100v220" style="stroke: rgb(169, 169, 169); stroke-opacity: 1; stroke-width: 1px;"/><path class="xgrid crisp" transform="translate(398.76,0)" d="M0,100v220" style="stroke: rgb(169, 169, 169); stroke-opacity: 1; stroke-width: 1px;"/><path class="xgrid crisp" transform="translate(489.65,0)" d="M0,100v220" style="stroke: rgb(169, 169, 169); stroke-opacity: 1; stroke-width: 1px;"/><path class="xgrid crisp" transform="translate(580.8,0)" d="M0,100v220" style="stroke: rgb(169, 169, 169); stroke-opacity: 1; stroke-width: 1px;"/><path class="xgrid crisp" transform="translate(671.69,0)" d="M0,100v220" style="stroke: rgb(169, 169, 169); stroke-opacity: 1; stroke-width: 1px;"/><path class="xgrid crisp" transform="translate(762.59,0)" d="M0,100v220" style="stroke: rgb(169, 169, 169); stroke-opacity: 1; stroke-width: 1px;"/></g><g class="y"><path class="ygrid crisp" transform="translate(0,245.11)" d="M80,0h705" style="stroke: rgb(169, 169, 169); stroke-opacity: 1; stroke-width: 1px;"/><path class="ygrid crisp" transform="translate(0,181.2)" d="M80,0h705" style="stroke: rgb(169, 169, 169); stroke-opacity: 1; stroke-width: 1px;"/><path class="ygrid crisp" transform="translate(0,117.28999999999999)" d="M80,0h705" style="stroke: rgb(169, 169, 169); stroke-opacity: 1; stroke-width: 1px;"/></g></g><g class="zerolinelayer"><path class="yzl zl crisp" transform="translate(0,309.01)" d="M80,0h705" style="stroke: rgb(255, 255, 255); stroke-opacity: 1; stroke-width: 1px;"/></g><path class="xlines-below"/><path class="ylines-below"/><g class="overlines-below"/><g class="xaxislayer-below"/><g class="yaxislayer-below"/><g class="overaxes-below"/><g class="plot" transform="translate(80,100)" clip-path="url(#clip17d1c2xyplot)"><g class="scatterlayer mlayer"><g class="trace scatter trace0e0e11" style="stroke-miterlimit: 2; opacity: 1;"><g class="fills"/><g class="errorbars"/><g class="lines"><path class="js-line" d="M0,208.15L7.72,186.31L15.44,194.67L22.91,199.16L30.63,205.13L38.1,197.34L45.82,186.3L53.54,188.38L60.76,183.15L75.95,180.06L83.67,182.33L91.14,154.28L98.86,181.46L106.58,196.97L114.06,193.34L121.77,197.8L129.25,185.6L136.97,173.69L144.69,169.49L151.66,122.24L159.38,120.22L166.85,199.27L174.57,187.67L182.04,184.12L189.76,166.21L197.48,197.62L204.95,173.3L212.67,208.79L220.14,208.99L227.86,203.36L235.58,185.3L242.55,194.89L250.27,200.55L257.74,165.2L265.46,193.54L272.94,208.91L280.66,204.78L288.38,195.17L295.85,205.82L303.57,200.76L311.04,203.21L318.76,201.1L326.48,203.31L333.45,202.19L341.17,187.2L348.64,200.8L356.36,191.55L363.83,201.81L371.55,190.82L379.27,188.01L386.74,194.36L394.46,200.67L401.93,197.46L409.65,196.21L417.37,200.91L424.59,205.04L432.31,198L439.78,199.45L447.5,198.03L454.98,198.88L462.7,195.1L477.89,194.99L485.61,193.72L493.08,181.17L500.8,181.03L508.52,172.98L515.49,180.83L523.21,190.36L530.68,190.83L538.4,188.59L545.87,170.28L553.59,191.11L561.31,188.58L568.78,188.21L576.5,191.57L583.97,195.91L591.69,194.03L599.41,187.25L606.38,184.25L614.1,191.44L621.58,188.79L629.3,187.14L636.77,186.46L644.49,182.94L652.21,189.34L659.68,190.15L667.4,188.9L674.87,187.56L682.59,187.76L690.31,189.55L697.28,193.61L705,194.67" style="vector-effect: none; fill: none; stroke: rgb(46, 46, 46); stroke-opacity: 1; stroke-dasharray: 3px, 3px; stroke-width: 3px; opacity: 1;"/></g><g class="points"/><g class="text"/></g><g class="trace scatter trace068a45" style="stroke-miterlimit: 2; opacity: 1;"><g class="fills"/><g class="errorbars"/><g class="lines"><path class="js-line" d="M0,204.29L7.72,66.81L15.44,161.97L22.91,165.76L30.63,189.57L38.1,169.86L45.82,135.57L53.54,137.14L60.76,114.72L75.95,115.54L83.67,113.79L91.14,11L98.86,100.36L106.58,176.07L114.06,166.93L121.77,172.86L129.25,160.62L136.97,157.25L144.69,160.76L151.66,117.87L159.38,77.84L166.85,179.09L174.57,134.58L182.04,135.97L189.76,81.24L197.48,170.36L204.95,106.7L212.67,207.72L220.14,208.88L227.86,192.63L235.58,123.24L242.55,171.99L250.27,186.74L257.74,79.1L265.46,151.19L272.94,207.62L280.66,196.5L288.38,169.51L295.85,192.74L303.57,165.41L311.04,183.06L318.76,182.9L326.48,172.18L341.17,154.54L348.64,183.17L356.36,166.09L363.83,194.91L371.55,158.59L379.27,145.53L386.74,181.4L394.46,183.34L401.93,178.41L409.65,186.92L417.37,186.79L424.59,197.01L432.31,176.34L439.78,176.66L447.5,177.83L454.98,182.77L462.7,170.87L470.42,166.17L477.89,173.56L485.61,173.15L493.08,146.11L500.8,133.98L508.52,131.59L515.49,143.28L523.21,161.46L530.68,172.42L538.4,168.02L545.87,150.69L553.59,175.92L561.31,153.58L568.78,162.78L576.5,175.46L583.97,172.9L591.69,178.23L599.41,167.13L606.38,163.51L614.1,172.73L621.58,173.29L629.3,176.9L636.77,174.44L644.49,167.28L652.21,170.46L659.68,169.68L667.4,169.63L674.87,169.81L682.59,171.13L690.31,174.99L697.28,181.04L705,184.25" style="vector-effect: none; fill: none; stroke: rgb(252, 3, 3); stroke-opacity: 1; stroke-dasharray: 3px, 3px; stroke-width: 3px; opacity: 1;"/></g><g class="points"/><g class="text"/></g><g class="trace scatter trace553526" style="stroke-miterlimit: 2; opacity: 1;"><g class="fills"/><g class="errorbars"/><g class="lines"><path class="js-line" d="M0,208.6L7.72,201.14L15.44,202.84L30.63,207.09L38.1,203.01L45.82,195.94L53.54,199.23L60.76,196.6L75.95,196.15L83.67,199.22L91.14,183.11L98.86,198.64L106.58,203.33L114.06,202.93L121.77,205.27L129.25,205.99L136.97,205.81L144.69,205.76L151.66,202.14L159.38,199.94L166.85,206.45L174.57,205.18L182.04,199.81L189.76,202.15L197.48,207.17L204.95,201.59L212.67,208.98L220.14,209L227.86,208.11L235.58,204.77L242.55,203.7L250.27,206.07L257.74,204.16L265.46,205.65L272.94,209L280.66,207.4L288.38,204.65L295.85,208.35L303.57,206.38L311.04,207.48L318.76,206.56L333.45,207.26L341.17,202.89L348.64,207.4L356.36,204.31L363.83,207.64L371.55,205.9L379.27,204.25L386.74,206.79L394.46,207.48L401.93,206.92L409.65,205.63L417.37,206.97L424.59,208.07L432.31,205.98L439.78,206.51L447.5,206.21L470.42,205.84L477.89,206.32L485.61,205.89L493.08,206.3L508.52,203.77L515.49,205.22L538.4,206.34L545.87,203.94L553.59,206.19L561.31,204.78L583.97,206.85L591.69,206.69L629.3,207.31L636.77,206.91L659.68,206.57L667.4,206.82L682.59,206.87L690.31,206.94L705,207.61" style="vector-effect: none; fill: none; stroke: rgb(211, 211, 211); stroke-opacity: 1; stroke-dasharray: 3px, 3px; stroke-width: 3px; opacity: 1;"/></g><g class="points"/><g class="text"/></g></g></g><g class="overplot"/><path class="xlines-above crisp" d="M79,320.5H785" style="fill: none; stroke-width: 1px; stroke: rgb(0, 0, 0); stroke-opacity: 1;"/><path class="ylines-above crisp" d="M79.5,100V320" style="fill: none; stroke-width: 1px; stroke: rgb(0, 0, 0); stroke-opacity: 1;"/><g class="overlines-above"/><g class="xaxislayer-above"><path class="xtick ticks crisp" d="M0,321v5" transform="translate(125.82,0)" style="stroke: rgb(51, 51, 51); stroke-opacity: 1; stroke-width: 1px;"/><path class="xtick ticks crisp" d="M0,321v5" transform="translate(216.97,0)" style="stroke: rgb(51, 51, 51); stroke-opacity: 1; stroke-width: 1px;"/><path class="xtick ticks crisp" d="M0,321v5" transform="translate(307.86,0)" style="stroke: rgb(51, 51, 51); stroke-opacity: 1; stroke-width: 1px;"/><path class="xtick ticks crisp" d="M0,321v5" transform="translate(398.76,0)" style="stroke: rgb(51, 51, 51); stroke-opacity: 1; stroke-width: 1px;"/><path class="xtick ticks crisp" d="M0,321v5" transform="translate(489.65,0)" style="stroke: rgb(51, 51, 51); stroke-opacity: 1; stroke-width: 1px;"/><path class="xtick ticks crisp" d="M0,321v5" transform="translate(580.8,0)" style="stroke: rgb(51, 51, 51); stroke-opacity: 1; stroke-width: 1px;"/><path class="xtick ticks crisp" d="M0,321v5" transform="translate(671.69,0)" style="stroke: rgb(51, 51, 51); stroke-opacity: 1; stroke-width: 1px;"/><path class="xtick ticks crisp" d="M0,321v5" transform="translate(762.59,0)" style="stroke: rgb(51, 51, 51); stroke-opacity: 1; stroke-width: 1px;"/><g class="xtick"><text text-anchor="middle" x="0" y="340.4" transform="translate(125.82,0)" style="font-family: 'Franklin Gothic'; font-size: 12px; fill: rgb(51, 51, 51); fill-opacity: 1; white-space: pre; opacity: 1;">2016</text></g><g class="xtick"><text text-anchor="middle" x="0" y="340.4" style="font-family: 'Franklin Gothic'; font-size: 12px; fill: rgb(51, 51, 51); fill-opacity: 1; white-space: pre; opacity: 1;" transform="translate(216.97,0)">2017</text></g><g class="xtick"><text text-anchor="middle" x="0" y="340.4" style="font-family: 'Franklin Gothic'; font-size: 12px; fill: rgb(51, 51, 51); fill-opacity: 1; white-space: pre; opacity: 1;" transform="translate(307.86,0)">2018</text></g><g class="xtick"><text text-anchor="middle" x="0" y="340.4" style="font-family: 'Franklin Gothic'; font-size: 12px; fill: rgb(51, 51, 51); fill-opacity: 1; white-space: pre; opacity: 1;" transform="translate(398.76,0)">2019</text></g><g class="xtick"><text text-anchor="middle" x="0" y="340.4" style="font-family: 'Franklin Gothic'; font-size: 12px; fill: rgb(51, 51, 51); fill-opacity: 1; white-space: pre; opacity: 1;" transform="translate(489.65,0)">2020</text></g><g class="xtick"><text text-anchor="middle" x="0" y="340.4" style="font-family: 'Franklin Gothic'; font-size: 12px; fill: rgb(51, 51, 51); fill-opacity: 1; white-space: pre; opacity: 1;" transform="translate(580.8,0)">2021</text></g><g class="xtick"><text text-anchor="middle" x="0" y="340.4" style="font-family: 'Franklin Gothic'; font-size: 12px; fill: rgb(51, 51, 51); fill-opacity: 1; white-space: pre; opacity: 1;" transform="translate(671.69,0)">2022</text></g><g class="xtick"><text text-anchor="middle" x="0" y="340.4" style="font-family: 'Franklin Gothic'; font-size: 12px; fill: rgb(51, 51, 51); fill-opacity: 1; white-space: pre; opacity: 1;" transform="translate(762.59,0)">2023</text></g></g><g class="yaxislayer-above"><path class="ytick ticks crisp" d="M79,0h-5" transform="translate(0,309.01)" style="stroke: rgb(51, 51, 51); stroke-opacity: 1; stroke-width: 1px;"/><path class="ytick ticks crisp" d="M79,0h-5" transform="translate(0,245.11)" style="stroke: rgb(51, 51, 51); stroke-opacity: 1; stroke-width: 1px;"/><path class="ytick ticks crisp" d="M79,0h-5" transform="translate(0,181.2)" style="stroke: rgb(51, 51, 51); stroke-opacity: 1; stroke-width: 1px;"/><path class="ytick ticks crisp" d="M79,0h-5" transform="translate(0,117.28999999999999)" style="stroke: rgb(51, 51, 51); stroke-opacity: 1; stroke-width: 1px;"/><g class="ytick"><text text-anchor="end" x="71.6" y="4.199999999999999" transform="translate(0,309.01)" style="font-family: 'Franklin Gothic'; font-size: 12px; fill: rgb(51, 51, 51); fill-opacity: 1; white-space: pre; opacity: 1;">0</text></g><g class="ytick"><text text-anchor="end" x="71.6" y="4.199999999999999" style="font-family: 'Franklin Gothic'; font-size: 12px; fill: rgb(51, 51, 51); fill-opacity: 1; white-space: pre; opacity: 1;" transform="translate(0,245.11)">100k</text></g><g class="ytick"><text text-anchor="end" x="71.6" y="4.199999999999999" style="font-family: 'Franklin Gothic'; font-size: 12px; fill: rgb(51, 51, 51); fill-opacity: 1; white-space: pre; opacity: 1;" transform="translate(0,181.2)">200k</text></g><g class="ytick"><text text-anchor="end" x="71.6" y="4.199999999999999" style="font-family: 'Franklin Gothic'; font-size: 12px; fill: rgb(51, 51, 51); fill-opacity: 1; white-space: pre; opacity: 1;" transform="translate(0,117.28999999999999)">300k</text></g></g><g class="overaxes-above"/></g></g><g class="polarlayer"/><g class="smithlayer"/><g class="ternarylayer"/><g class="geolayer"/><g class="funnelarealayer"/><g class="pielayer"/><g class="iciclelayer"/><g class="treemaplayer"/><g class="sunburstlayer"/><g class="glimages"/><defs id="topdefs-17d1c2"><g class="clips"/><clipPath id="legend17d1c2"><rect width="189" height="67" x="0" y="0"/></clipPath></defs><g class="layer-above"><g class="imagelayer"/><g class="shapelayer"/></g><g class="infolayer"><g class="legend" pointer-events="all" transform="translate(799.1,100)"><rect class="bg" shape-rendering="crispEdges" style="stroke: rgb(68, 68, 68); stroke-opacity: 1; fill: rgb(255, 255, 255); fill-opacity: 1; stroke-width: 0px;" width="189" height="67" x="0" y="0"/><g class="scrollbox" transform="" clip-path="url(#legend17d1c2)"><g class="groups"><g class="traces" transform="translate(0,14.5)" style="opacity: 1;"><text class="legendtext" text-anchor="start" x="40" y="4.680000000000001" style="font-family: 'Franklin Gothic'; font-size: 12px; fill: rgb(51, 51, 51); fill-opacity: 1; white-space: pre;">Likes change per time</text><g class="layers" style="opacity: 1;"><g class="legendfill"/><g class="legendlines"><path class="js-line" d="M5,0h30" style="fill: none; stroke: rgb(46, 46, 46); stroke-opacity: 1; stroke-dasharray: 3px, 3px; stroke-width: 3px;"/></g><g class="legendsymbols"><g class="legendpoints"/></g></g><rect class="legendtoggle" x="0" y="-9.5" width="183.859375" height="19" style="fill: rgb(0, 0, 0); fill-opacity: 0;"/></g><g class="traces" transform="translate(0,33.5)" style="opacity: 1;"><text class="legendtext" text-anchor="start" x="40" y="4.680000000000001" style="font-family: 'Franklin Gothic'; font-size: 12px; fill: rgb(51, 51, 51); fill-opacity: 1; white-space: pre;">Views change per time</text><g class="layers" style="opacity: 1;"><g class="legendfill"/><g class="legendlines"><path class="js-line" d="M5,0h30" style="fill: none; stroke: rgb(252, 3, 3); stroke-opacity: 1; stroke-dasharray: 3px, 3px; stroke-width: 3px;"/></g><g class="legendsymbols"><g class="legendpoints"/></g></g><rect class="legendtoggle" x="0" y="-9.5" width="183.859375" height="19" style="fill: rgb(0, 0, 0); fill-opacity: 0;"/></g><g class="traces" transform="translate(0,52.5)" style="opacity: 1;"><text class="legendtext" text-anchor="start" x="40" y="4.680000000000001" style="font-family: 'Franklin Gothic'; font-size: 12px; fill: rgb(51, 51, 51); fill-opacity: 1; white-space: pre;">Comments change per time</text><g class="layers" style="opacity: 1;"><g class="legendfill"/><g class="legendlines"><path class="js-line" d="M5,0h30" style="fill: none; stroke: rgb(211, 211, 211); stroke-opacity: 1; stroke-dasharray: 3px, 3px; stroke-width: 3px;"/></g><g class="legendsymbols"><g class="legendpoints"/></g></g><rect class="legendtoggle" x="0" y="-9.5" width="183.859375" height="19" style="fill: rgb(0, 0, 0); fill-opacity: 0;"/></g></g></g><rect class="scrollbar" rx="20" ry="3" width="0" height="0" style="fill: rgb(128, 139, 164); fill-opacity: 1;" x="0" y="0"/></g><g class="g-gtitle"><text class="gtitle" x="500" y="50" text-anchor="middle" dy="0em" style="font-family: 'Franklin Gothic'; font-size: 17px; fill: rgb(51, 51, 51); opacity: 1; font-weight: normal; white-space: pre;"><tspan class="line" dy="0em" x="500" y="50"><tspan style=" fill: red">Change</tspan> in likes and views per time</tspan><tspan class="line" dy="1.3em" x="500" y="50">​<tspan style="font-size:70%" dy="0.3em">*like counts are scaled by 10 to be readable &amp; comments are scaled by 20</tspan><tspan dy="-0.21em">​</tspan></tspan></text></g><g class="g-xtitle"/><g class="g-ytitle"/></g></svg>