<svg class="main-svg" xmlns="http://www.w3.org/2000/svg" xmlns:xlink="http://www.w3.org/1999/xlink" width="700" height="500" style="" viewBox="0 0 700 500"><rect x="0" y="0" width="700" height="500" style="fill: rgb(255, 255, 255); fill-opacity: 1;"/><defs id="defs-18f98a"><g class="clips"><clipPath id="clip18f98axyplot" class="plotclip"><rect width="496" height="267"/></clipPath><clipPath class="axesclip" id="clip18f98ax"><rect x="80" y="0" width="496" height="500"/></clipPath><clipPath class="axesclip" id="clip18f98ay"><rect x="0" y="100" width="700" height="267"/></clipPath><clipPath class="axesclip" id="clip18f98axy"><rect x="80" y="100" width="496" height="267"/></clipPath></g><g class="gradients"/><g class="patterns"/></defs><g class="bglayer"><rect class="bg" x="80" y="100" width="496" height="267" style="fill: rgb(237, 237, 237); fill-opacity: 1; stroke-width: 0;"/></g><g class="layer-below"><g class="imagelayer"/><g class="shapelayer"/></g><g class="cartesianlayer"><g class="subplot xy"><g class="layer-subplot"><g class="shapelayer"/><g class="imagelayer"/></g><g class="minor-gridlayer"><g class="x"/><g class="y"/></g><g class="gridlayer"><g class="x"><path class="xgrid crisp" transform="translate(88.27,0)" d="M0,100v267" style="stroke: rgb(169, 169, 169); stroke-opacity: 1; stroke-width: 1px;"/><path class="xgrid crisp" transform="translate(104.8,0)" d="M0,100v267" style="stroke: rgb(169, 169, 169); stroke-opacity: 1; stroke-width: 1px;"/><path class="xgrid crisp" transform="translate(121.33,0)" d="M0,100v267" style="stroke: rgb(169, 169, 169); stroke-opacity: 1; stroke-width: 1px;"/><path class="xgrid crisp" transform="translate(137.87,0)" d="M0,100v267" style="stroke: rgb(169, 169, 169); stroke-opacity: 1; stroke-width: 1px;"/><path class="xgrid crisp" transform="translate(154.4,0)" d="M0,100v267" style="stroke: rgb(169, 169, 169); stroke-opacity: 1; stroke-width: 1px;"/><path class="xgrid crisp" transform="translate(170.93,0)" d="M0,100v267" style="stroke: rgb(169, 169, 169); stroke-opacity: 1; stroke-width: 1px;"/><path class="xgrid crisp" transform="translate(187.47,0)" d="M0,100v267" style="stroke: rgb(169, 169, 169); stroke-opacity: 1; stroke-width: 1px;"/><path class="xgrid crisp" transform="translate(204,0)" d="M0,100v267" style="stroke: rgb(169, 169, 169); stroke-opacity: 1; stroke-width: 1px;"/><path class="xgrid crisp" transform="translate(220.53,0)" d="M0,100v267" style="stroke: rgb(169, 169, 169); stroke-opacity: 1; stroke-width: 1px;"/><path class="xgrid crisp" transform="translate(237.07,0)" d="M0,100v267" style="stroke: rgb(169, 169, 169); stroke-opacity: 1; stroke-width: 1px;"/><path class="xgrid crisp" transform="translate(253.6,0)" d="M0,100v267" style="stroke: rgb(169, 169, 169); stroke-opacity: 1; stroke-width: 1px;"/><path class="xgrid crisp" transform="translate(270.13,0)" d="M0,100v267" style="stroke: rgb(169, 169, 169); stroke-opacity: 1; stroke-width: 1px;"/><path class="xgrid crisp" transform="translate(286.66999999999996,0)" d="M0,100v267" style="stroke: rgb(169, 169, 169); stroke-opacity: 1; stroke-width: 1px;"/><path class="xgrid crisp" transform="translate(303.2,0)" d="M0,100v267" style="stroke: rgb(169, 169, 169); stroke-opacity: 1; stroke-width: 1px;"/><path class="xgrid crisp" transform="translate(319.73,0)" d="M0,100v267" style="stroke: rgb(169, 169, 169); stroke-opacity: 1; stroke-width: 1px;"/><path class="xgrid crisp" transform="translate(336.27,0)" d="M0,100v267" style="stroke: rgb(169, 169, 169); stroke-opacity: 1; stroke-width: 1px;"/><path class="xgrid crisp" transform="translate(352.8,0)" d="M0,100v267" style="stroke: rgb(169, 169, 169); stroke-opacity: 1; stroke-width: 1px;"/><path class="xgrid crisp" transform="translate(369.33,0)" d="M0,100v267" style="stroke: rgb(169, 169, 169); stroke-opacity: 1; stroke-width: 1px;"/><path class="xgrid crisp" transform="translate(385.87,0)" d="M0,100v267" style="stroke: rgb(169, 169, 169); stroke-opacity: 1; stroke-width: 1px;"/><path class="xgrid crisp" transform="translate(402.4,0)" d="M0,100v267" style="stroke: rgb(169, 169, 169); stroke-opacity: 1; stroke-width: 1px;"/><path class="xgrid crisp" transform="translate(418.93,0)" d="M0,100v267" style="stroke: rgb(169, 169, 169); stroke-opacity: 1; stroke-width: 1px;"/><path class="xgrid crisp" transform="translate(435.47,0)" d="M0,100v267" style="stroke: rgb(169, 169, 169); stroke-opacity: 1; stroke-width: 1px;"/><path class="xgrid crisp" transform="translate(452,0)" d="M0,100v267" style="stroke: rgb(169, 169, 169); stroke-opacity: 1; stroke-width: 1px;"/><path class="xgrid crisp" transform="translate(468.53,0)" d="M0,100v267" style="stroke: rgb(169, 169, 169); stroke-opacity: 1; stroke-width: 1px;"/><path class="xgrid crisp" transform="translate(485.07,0)" d="M0,100v267" style="stroke: rgb(169, 169, 169); stroke-opacity: 1; stroke-width: 1px;"/><path class="xgrid crisp" transform="translate(501.6,0)" d="M0,100v267" style="stroke: rgb(169, 169, 169); stroke-opacity: 1; stroke-width: 1px;"/><path class="xgrid crisp" transform="translate(518.13,0)" d="M0,100v267" style="stroke: rgb(169, 169, 169); stroke-opacity: 1; stroke-width: 1px;"/><path class="xgrid crisp" transform="translate(534.6700000000001,0)" d="M0,100v267" style="stroke: rgb(169, 169, 169); stroke-opacity: 1; stroke-width: 1px;"/><path class="xgrid crisp" transform="translate(551.2,0)" d="M0,100v267" style="stroke: rgb(169, 169, 169); stroke-opacity: 1; stroke-width: 1px;"/><path class="xgrid crisp" transform="translate(567.73,0)" d="M0,100v267" style="stroke: rgb(169, 169, 169); stroke-opacity: 1; stroke-width: 1px;"/></g><g class="y"><path class="ygrid crisp" transform="translate(0,321.40999999999997)" d="M80,0h496" style="stroke: rgb(169, 169, 169); stroke-opacity: 1; stroke-width: 1px;"/><path class="ygrid crisp" transform="translate(0,275.82)" d="M80,0h496" style="stroke: rgb(169, 169, 169); stroke-opacity: 1; stroke-width: 1px;"/><path class="ygrid crisp" transform="translate(0,230.23)" d="M80,0h496" style="stroke: rgb(169, 169, 169); stroke-opacity: 1; stroke-width: 1px;"/><path class="ygrid crisp" transform="translate(0,184.64)" d="M80,0h496" style="stroke: rgb(169, 169, 169); stroke-opacity: 1; stroke-width: 1px;"/><path class="ygrid crisp" transform="translate(0,139.05)" d="M80,0h496" style="stroke: rgb(169, 169, 169); stroke-opacity: 1; stroke-width: 1px;"/></g></g><g class="zerolinelayer"><path class="yzl zl crisp" transform="translate(0,367)" d="M80,0h496" style="stroke: rgb(255, 255, 255); stroke-opacity: 1; stroke-width: 1px;"/></g><path class="xlines-below"/><path class="ylines-below"/><g class="overlines-below"/><g class="xaxislayer-below"/><g class="yaxislayer-below"/><g class="overaxes-below"/><g class="plot" transform="translate(80,100)" clip-path="url(#clip18f98axyplot)"><g class="barlayer mlayer"><g class="trace bars" style="opacity: 1;"><g class="points"><g class="point"><path d="M1.65,267V47.6H6.06V267Z" style="vector-effect: none; opacity: 1; stroke-width: 0.5px; fill: rgb(46, 46, 46); fill-opacity: 1; stroke: rgb(237, 237, 237); stroke-opacity: 1;"/></g><g class="point"><path d="M18.19,267V105.72H22.6V267Z" style="vector-effect: none; opacity: 1; stroke-width: 0.5px; fill: rgb(46, 46, 46); fill-opacity: 1; stroke: rgb(237, 237, 237); stroke-opacity: 1;"/></g><g class="point"><path d="M34.72,267V13.35H39.13V267Z" style="vector-effect: none; opacity: 1; stroke-width: 0.5px; fill: rgb(46, 46, 46); fill-opacity: 1; stroke: rgb(237, 237, 237); stroke-opacity: 1;"/></g><g class="point"><path d="M51.25,267V199.18H55.66V267Z" style="vector-effect: none; opacity: 1; stroke-width: 0.5px; fill: rgb(46, 46, 46); fill-opacity: 1; stroke: rgb(237, 237, 237); stroke-opacity: 1;"/></g><g class="point"><path d="M67.79,267V85.87H72.2V267Z" style="vector-effect: none; opacity: 1; stroke-width: 0.5px; fill: rgb(46, 46, 46); fill-opacity: 1; stroke: rgb(237, 237, 237); stroke-opacity: 1;"/></g><g class="point"><path d="M84.32,267V155.19H88.73V267Z" style="vector-effect: none; opacity: 1; stroke-width: 0.5px; fill: rgb(46, 46, 46); fill-opacity: 1; stroke: rgb(237, 237, 237); stroke-opacity: 1;"/></g><g class="point"><path d="M100.85,267V203.46H105.26V267Z" style="vector-effect: none; opacity: 1; stroke-width: 0.5px; fill: rgb(46, 46, 46); fill-opacity: 1; stroke: rgb(237, 237, 237); stroke-opacity: 1;"/></g><g class="point"><path d="M117.39,267V145.98H121.8V267Z" style="vector-effect: none; opacity: 1; stroke-width: 0.5px; fill: rgb(46, 46, 46); fill-opacity: 1; stroke: rgb(237, 237, 237); stroke-opacity: 1;"/></g><g class="point"><path d="M133.92,267V189.67H138.33V267Z" style="vector-effect: none; opacity: 1; stroke-width: 0.5px; fill: rgb(46, 46, 46); fill-opacity: 1; stroke: rgb(237, 237, 237); stroke-opacity: 1;"/></g><g class="point"><path d="M150.45,267V158.45H154.86V267Z" style="vector-effect: none; opacity: 1; stroke-width: 0.5px; fill: rgb(46, 46, 46); fill-opacity: 1; stroke: rgb(237, 237, 237); stroke-opacity: 1;"/></g><g class="point"><path d="M166.99,267V192.3H171.4V267Z" style="vector-effect: none; opacity: 1; stroke-width: 0.5px; fill: rgb(46, 46, 46); fill-opacity: 1; stroke: rgb(237, 237, 237); stroke-opacity: 1;"/></g><g class="point"><path d="M183.52,267V231.03H187.93V267Z" style="vector-effect: none; opacity: 1; stroke-width: 0.5px; fill: rgb(46, 46, 46); fill-opacity: 1; stroke: rgb(237, 237, 237); stroke-opacity: 1;"/></g><g class="point"><path d="M200.05,267V149.11H204.46V267Z" style="vector-effect: none; opacity: 1; stroke-width: 0.5px; fill: rgb(46, 46, 46); fill-opacity: 1; stroke: rgb(237, 237, 237); stroke-opacity: 1;"/></g><g class="point"><path d="M216.59,267V153H221V267Z" style="vector-effect: none; opacity: 1; stroke-width: 0.5px; fill: rgb(46, 46, 46); fill-opacity: 1; stroke: rgb(237, 237, 237); stroke-opacity: 1;"/></g><g class="point"><path d="M233.12,267V150.18H237.53V267Z" style="vector-effect: none; opacity: 1; stroke-width: 0.5px; fill: rgb(46, 46, 46); fill-opacity: 1; stroke: rgb(237, 237, 237); stroke-opacity: 1;"/></g><g class="point"><path d="M249.65,267V194.88H254.06V267Z" style="vector-effect: none; opacity: 1; stroke-width: 0.5px; fill: rgb(46, 46, 46); fill-opacity: 1; stroke: rgb(237, 237, 237); stroke-opacity: 1;"/></g><g class="point"><path d="M266.19,267V213.38H270.6V267Z" style="vector-effect: none; opacity: 1; stroke-width: 0.5px; fill: rgb(46, 46, 46); fill-opacity: 1; stroke: rgb(237, 237, 237); stroke-opacity: 1;"/></g><g class="point"><path d="M282.72,267V189.81H287.13V267Z" style="vector-effect: none; opacity: 1; stroke-width: 0.5px; fill: rgb(46, 46, 46); fill-opacity: 1; stroke: rgb(237, 237, 237); stroke-opacity: 1;"/></g><g class="point"><path d="M299.25,267V238.23H303.66V267Z" style="vector-effect: none; opacity: 1; stroke-width: 0.5px; fill: rgb(46, 46, 46); fill-opacity: 1; stroke: rgb(237, 237, 237); stroke-opacity: 1;"/></g><g class="point"><path d="M315.79,267V240.73H320.2V267Z" style="vector-effect: none; opacity: 1; stroke-width: 0.5px; fill: rgb(46, 46, 46); fill-opacity: 1; stroke: rgb(237, 237, 237); stroke-opacity: 1;"/></g><g class="point"><path d="M332.32,267V210.5H336.73V267Z" style="vector-effect: none; opacity: 1; stroke-width: 0.5px; fill: rgb(46, 46, 46); fill-opacity: 1; stroke: rgb(237, 237, 237); stroke-opacity: 1;"/></g><g class="point"><path d="M348.85,267V232.96H353.26V267Z" style="vector-effect: none; opacity: 1; stroke-width: 0.5px; fill: rgb(46, 46, 46); fill-opacity: 1; stroke: rgb(237, 237, 237); stroke-opacity: 1;"/></g><g class="point"><path d="M365.39,267V225.32H369.8V267Z" style="vector-effect: none; opacity: 1; stroke-width: 0.5px; fill: rgb(46, 46, 46); fill-opacity: 1; stroke: rgb(237, 237, 237); stroke-opacity: 1;"/></g><g class="point"><path d="M381.92,267V28.94H386.33V267Z" style="vector-effect: none; opacity: 1; stroke-width: 0.5px; fill: rgb(46, 46, 46); fill-opacity: 1; stroke: rgb(237, 237, 237); stroke-opacity: 1;"/></g><g class="point"><path d="M398.45,267V245.02H402.86V267Z" style="vector-effect: none; opacity: 1; stroke-width: 0.5px; fill: rgb(46, 46, 46); fill-opacity: 1; stroke: rgb(237, 237, 237); stroke-opacity: 1;"/></g><g class="point"><path d="M414.99,267V248.06H419.4V267Z" style="vector-effect: none; opacity: 1; stroke-width: 0.5px; fill: rgb(46, 46, 46); fill-opacity: 1; stroke: rgb(237, 237, 237); stroke-opacity: 1;"/></g><g class="point"><path d="M431.52,267V211.86H435.93V267Z" style="vector-effect: none; opacity: 1; stroke-width: 0.5px; fill: rgb(46, 46, 46); fill-opacity: 1; stroke: rgb(237, 237, 237); stroke-opacity: 1;"/></g><g class="point"><path d="M448.05,267V187.3H452.46V267Z" style="vector-effect: none; opacity: 1; stroke-width: 0.5px; fill: rgb(46, 46, 46); fill-opacity: 1; stroke: rgb(237, 237, 237); stroke-opacity: 1;"/></g><g class="point"><path d="M464.59,267V105.69H469V267Z" style="vector-effect: none; opacity: 1; stroke-width: 0.5px; fill: rgb(46, 46, 46); fill-opacity: 1; stroke: rgb(237, 237, 237); stroke-opacity: 1;"/></g><g class="point"><path d="M481.12,267V229.59H485.53V267Z" style="vector-effect: none; opacity: 1; stroke-width: 0.5px; fill: rgb(46, 46, 46); fill-opacity: 1; stroke: rgb(237, 237, 237); stroke-opacity: 1;"/></g></g></g><g class="trace bars" style="opacity: 1;"><g class="points"><g class="point"><path d="M6.06,267V258.76H10.47V267Z" style="vector-effect: none; opacity: 1; stroke-width: 0.5px; fill: rgb(252, 3, 3); fill-opacity: 1; stroke: rgb(237, 237, 237); stroke-opacity: 1;"/></g><g class="point"><path d="M22.6,267V262.2H27V267Z" style="vector-effect: none; opacity: 1; stroke-width: 0.5px; fill: rgb(252, 3, 3); fill-opacity: 1; stroke: rgb(237, 237, 237); stroke-opacity: 1;"/></g><g class="point"><path d="M39.13,267V262.48H43.54V267Z" style="vector-effect: none; opacity: 1; stroke-width: 0.5px; fill: rgb(252, 3, 3); fill-opacity: 1; stroke: rgb(237, 237, 237); stroke-opacity: 1;"/></g><g class="point"><path d="M55.66,267V264.59H60.07V267Z" style="vector-effect: none; opacity: 1; stroke-width: 0.5px; fill: rgb(252, 3, 3); fill-opacity: 1; stroke: rgb(237, 237, 237); stroke-opacity: 1;"/></g><g class="point"><path d="M72.2,267V260.45H76.6V267Z" style="vector-effect: none; opacity: 1; stroke-width: 0.5px; fill: rgb(252, 3, 3); fill-opacity: 1; stroke: rgb(237, 237, 237); stroke-opacity: 1;"/></g><g class="point"><path d="M88.73,267V262.8H93.14V267Z" style="vector-effect: none; opacity: 1; stroke-width: 0.5px; fill: rgb(252, 3, 3); fill-opacity: 1; stroke: rgb(237, 237, 237); stroke-opacity: 1;"/></g><g class="point"><path d="M105.26,267V264.19H109.67V267Z" style="vector-effect: none; opacity: 1; stroke-width: 0.5px; fill: rgb(252, 3, 3); fill-opacity: 1; stroke: rgb(237, 237, 237); stroke-opacity: 1;"/></g><g class="point"><path d="M121.8,267V263.61H126.2V267Z" style="vector-effect: none; opacity: 1; stroke-width: 0.5px; fill: rgb(252, 3, 3); fill-opacity: 1; stroke: rgb(237, 237, 237); stroke-opacity: 1;"/></g><g class="point"><path d="M138.33,267V264.44H142.74V267Z" style="vector-effect: none; opacity: 1; stroke-width: 0.5px; fill: rgb(252, 3, 3); fill-opacity: 1; stroke: rgb(237, 237, 237); stroke-opacity: 1;"/></g><g class="point"><path d="M154.86,267V264.9H159.27V267Z" style="vector-effect: none; opacity: 1; stroke-width: 0.5px; fill: rgb(252, 3, 3); fill-opacity: 1; stroke: rgb(237, 237, 237); stroke-opacity: 1;"/></g><g class="point"><path d="M171.4,267V262.8H175.8V267Z" style="vector-effect: none; opacity: 1; stroke-width: 0.5px; fill: rgb(252, 3, 3); fill-opacity: 1; stroke: rgb(237, 237, 237); stroke-opacity: 1;"/></g><g class="point"><path d="M187.93,267V265.78H192.34V267Z" style="vector-effect: none; opacity: 1; stroke-width: 0.5px; fill: rgb(252, 3, 3); fill-opacity: 1; stroke: rgb(237, 237, 237); stroke-opacity: 1;"/></g><g class="point"><path d="M204.46,267V264.13H208.87V267Z" style="vector-effect: none; opacity: 1; stroke-width: 0.5px; fill: rgb(252, 3, 3); fill-opacity: 1; stroke: rgb(237, 237, 237); stroke-opacity: 1;"/></g><g class="point"><path d="M221,267V264.22H225.4V267Z" style="vector-effect: none; opacity: 1; stroke-width: 0.5px; fill: rgb(252, 3, 3); fill-opacity: 1; stroke: rgb(237, 237, 237); stroke-opacity: 1;"/></g><g class="point"><path d="M237.53,267V263.12H241.94V267Z" style="vector-effect: none; opacity: 1; stroke-width: 0.5px; fill: rgb(252, 3, 3); fill-opacity: 1; stroke: rgb(237, 237, 237); stroke-opacity: 1;"/></g><g class="point"><path d="M254.06,267V261.32H258.47V267Z" style="vector-effect: none; opacity: 1; stroke-width: 0.5px; fill: rgb(252, 3, 3); fill-opacity: 1; stroke: rgb(237, 237, 237); stroke-opacity: 1;"/></g><g class="point"><path d="M270.6,267V265.25H275V267Z" style="vector-effect: none; opacity: 1; stroke-width: 0.5px; fill: rgb(252, 3, 3); fill-opacity: 1; stroke: rgb(237, 237, 237); stroke-opacity: 1;"/></g><g class="point"><path d="M287.13,267V264.49H291.54V267Z" style="vector-effect: none; opacity: 1; stroke-width: 0.5px; fill: rgb(252, 3, 3); fill-opacity: 1; stroke: rgb(237, 237, 237); stroke-opacity: 1;"/></g><g class="point"><path d="M303.66,267V265.83H308.07V267Z" style="vector-effect: none; opacity: 1; stroke-width: 0.5px; fill: rgb(252, 3, 3); fill-opacity: 1; stroke: rgb(237, 237, 237); stroke-opacity: 1;"/></g><g class="point"><path d="M320.2,267V265.53H324.6V267Z" style="vector-effect: none; opacity: 1; stroke-width: 0.5px; fill: rgb(252, 3, 3); fill-opacity: 1; stroke: rgb(237, 237, 237); stroke-opacity: 1;"/></g><g class="point"><path d="M336.73,267V265.73H341.14V267Z" style="vector-effect: none; opacity: 1; stroke-width: 0.5px; fill: rgb(252, 3, 3); fill-opacity: 1; stroke: rgb(237, 237, 237); stroke-opacity: 1;"/></g><g class="point"><path d="M353.26,267V265.67H357.67V267Z" style="vector-effect: none; opacity: 1; stroke-width: 0.5px; fill: rgb(252, 3, 3); fill-opacity: 1; stroke: rgb(237, 237, 237); stroke-opacity: 1;"/></g><g class="point"><path d="M369.8,267V265.06H374.2V267Z" style="vector-effect: none; opacity: 1; stroke-width: 0.5px; fill: rgb(252, 3, 3); fill-opacity: 1; stroke: rgb(237, 237, 237); stroke-opacity: 1;"/></g><g class="point"><path d="M386.33,267V263.97H390.74V267Z" style="vector-effect: none; opacity: 1; stroke-width: 0.5px; fill: rgb(252, 3, 3); fill-opacity: 1; stroke: rgb(237, 237, 237); stroke-opacity: 1;"/></g><g class="point"><path d="M402.86,267V265.98H407.27V267Z" style="vector-effect: none; opacity: 1; stroke-width: 0.5px; fill: rgb(252, 3, 3); fill-opacity: 1; stroke: rgb(237, 237, 237); stroke-opacity: 1;"/></g><g class="point"><path d="M419.4,267V266.53H423.8V267Z" style="vector-effect: none; opacity: 1; stroke-width: 0.5px; fill: rgb(252, 3, 3); fill-opacity: 1; stroke: rgb(237, 237, 237); stroke-opacity: 1;"/></g><g class="point"><path d="M435.93,267V265.37H440.34V267Z" style="vector-effect: none; opacity: 1; stroke-width: 0.5px; fill: rgb(252, 3, 3); fill-opacity: 1; stroke: rgb(237, 237, 237); stroke-opacity: 1;"/></g><g class="point"><path d="M452.46,267V264.56H456.87V267Z" style="vector-effect: none; opacity: 1; stroke-width: 0.5px; fill: rgb(252, 3, 3); fill-opacity: 1; stroke: rgb(237, 237, 237); stroke-opacity: 1;"/></g><g class="point"><path d="M469,267V263.14H473.4V267Z" style="vector-effect: none; opacity: 1; stroke-width: 0.5px; fill: rgb(252, 3, 3); fill-opacity: 1; stroke: rgb(237, 237, 237); stroke-opacity: 1;"/></g><g class="point"><path d="M485.53,267V265.81H489.94V267Z" style="vector-effect: none; opacity: 1; stroke-width: 0.5px; fill: rgb(252, 3, 3); fill-opacity: 1; stroke: rgb(237, 237, 237); stroke-opacity: 1;"/></g></g></g><g class="trace bars" style="opacity: 1;"><g class="points"><g class="point"><path d="M10.47,267V266.97H14.88V267Z" style="vector-effect: none; opacity: 1; stroke-width: 0.5px; fill: rgb(211, 211, 211); fill-opacity: 1; stroke: rgb(237, 237, 237); stroke-opacity: 1;"/></g><g class="point"><path d="M27,267V266.92H31.41V267Z" style="vector-effect: none; opacity: 1; stroke-width: 0.5px; fill: rgb(211, 211, 211); fill-opacity: 1; stroke: rgb(237, 237, 237); stroke-opacity: 1;"/></g><g class="point"><path d="M43.54,267V267H47.95V267Z" style="vector-effect: none; opacity: 1; stroke-width: 0.5px; fill: rgb(211, 211, 211); fill-opacity: 1; stroke: rgb(237, 237, 237); stroke-opacity: 1;"/></g><g class="point"><path d="M60.07,267V266.88H64.48V267Z" style="vector-effect: none; opacity: 1; stroke-width: 0.5px; fill: rgb(211, 211, 211); fill-opacity: 1; stroke: rgb(237, 237, 237); stroke-opacity: 1;"/></g><g class="point"><path d="M76.6,267V266.94H81.01V267Z" style="vector-effect: none; opacity: 1; stroke-width: 0.5px; fill: rgb(211, 211, 211); fill-opacity: 1; stroke: rgb(237, 237, 237); stroke-opacity: 1;"/></g><g class="point"><path d="M93.14,267V266.94H97.55V267Z" style="vector-effect: none; opacity: 1; stroke-width: 0.5px; fill: rgb(211, 211, 211); fill-opacity: 1; stroke: rgb(237, 237, 237); stroke-opacity: 1;"/></g><g class="point"><path d="M109.67,267V266.88H114.08V267Z" style="vector-effect: none; opacity: 1; stroke-width: 0.5px; fill: rgb(211, 211, 211); fill-opacity: 1; stroke: rgb(237, 237, 237); stroke-opacity: 1;"/></g><g class="point"><path d="M126.2,267V266.98H130.61V267Z" style="vector-effect: none; opacity: 1; stroke-width: 0.5px; fill: rgb(211, 211, 211); fill-opacity: 1; stroke: rgb(237, 237, 237); stroke-opacity: 1;"/></g><g class="point"><path d="M142.74,267V266.88H147.15V267Z" style="vector-effect: none; opacity: 1; stroke-width: 0.5px; fill: rgb(211, 211, 211); fill-opacity: 1; stroke: rgb(237, 237, 237); stroke-opacity: 1;"/></g><g class="point"><path d="M159.27,267V266.85H163.68V267Z" style="vector-effect: none; opacity: 1; stroke-width: 0.5px; fill: rgb(211, 211, 211); fill-opacity: 1; stroke: rgb(237, 237, 237); stroke-opacity: 1;"/></g><g class="point"><path d="M175.8,267V266.87H180.21V267Z" style="vector-effect: none; opacity: 1; stroke-width: 0.5px; fill: rgb(211, 211, 211); fill-opacity: 1; stroke: rgb(237, 237, 237); stroke-opacity: 1;"/></g><g class="point"><path d="M192.34,267V266.93H196.75V267Z" style="vector-effect: none; opacity: 1; stroke-width: 0.5px; fill: rgb(211, 211, 211); fill-opacity: 1; stroke: rgb(237, 237, 237); stroke-opacity: 1;"/></g><g class="point"><path d="M208.87,267V266.87H213.28V267Z" style="vector-effect: none; opacity: 1; stroke-width: 0.5px; fill: rgb(211, 211, 211); fill-opacity: 1; stroke: rgb(237, 237, 237); stroke-opacity: 1;"/></g><g class="point"><path d="M225.4,267V266.92H229.81V267Z" style="vector-effect: none; opacity: 1; stroke-width: 0.5px; fill: rgb(211, 211, 211); fill-opacity: 1; stroke: rgb(237, 237, 237); stroke-opacity: 1;"/></g><g class="point"><path d="M241.94,267V266.95H246.35V267Z" style="vector-effect: none; opacity: 1; stroke-width: 0.5px; fill: rgb(211, 211, 211); fill-opacity: 1; stroke: rgb(237, 237, 237); stroke-opacity: 1;"/></g><g class="point"><path d="M258.47,267V267H262.88V267Z" style="vector-effect: none; opacity: 1; stroke-width: 0.5px; fill: rgb(211, 211, 211); fill-opacity: 1; stroke: rgb(237, 237, 237); stroke-opacity: 1;"/></g><g class="point"><path d="M275,267V266.92H279.41V267Z" style="vector-effect: none; opacity: 1; stroke-width: 0.5px; fill: rgb(211, 211, 211); fill-opacity: 1; stroke: rgb(237, 237, 237); stroke-opacity: 1;"/></g><g class="point"><path d="M291.54,267V266.91H295.95V267Z" style="vector-effect: none; opacity: 1; stroke-width: 0.5px; fill: rgb(211, 211, 211); fill-opacity: 1; stroke: rgb(237, 237, 237); stroke-opacity: 1;"/></g><g class="point"><path d="M308.07,267V266.94H312.48V267Z" style="vector-effect: none; opacity: 1; stroke-width: 0.5px; fill: rgb(211, 211, 211); fill-opacity: 1; stroke: rgb(237, 237, 237); stroke-opacity: 1;"/></g><g class="point"><path d="M324.6,267V266.93H329.01V267Z" style="vector-effect: none; opacity: 1; stroke-width: 0.5px; fill: rgb(211, 211, 211); fill-opacity: 1; stroke: rgb(237, 237, 237); stroke-opacity: 1;"/></g><g class="point"><path d="M341.14,267V266.87H345.55V267Z" style="vector-effect: none; opacity: 1; stroke-width: 0.5px; fill: rgb(211, 211, 211); fill-opacity: 1; stroke: rgb(237, 237, 237); stroke-opacity: 1;"/></g><g class="point"><path d="M357.67,267V266.95H362.08V267Z" style="vector-effect: none; opacity: 1; stroke-width: 0.5px; fill: rgb(211, 211, 211); fill-opacity: 1; stroke: rgb(237, 237, 237); stroke-opacity: 1;"/></g><g class="point"><path d="M374.2,267V266.86H378.61V267Z" style="vector-effect: none; opacity: 1; stroke-width: 0.5px; fill: rgb(211, 211, 211); fill-opacity: 1; stroke: rgb(237, 237, 237); stroke-opacity: 1;"/></g><g class="point"><path d="M390.74,267V266.85H395.15V267Z" style="vector-effect: none; opacity: 1; stroke-width: 0.5px; fill: rgb(211, 211, 211); fill-opacity: 1; stroke: rgb(237, 237, 237); stroke-opacity: 1;"/></g><g class="point"><path d="M407.27,267V266.94H411.68V267Z" style="vector-effect: none; opacity: 1; stroke-width: 0.5px; fill: rgb(211, 211, 211); fill-opacity: 1; stroke: rgb(237, 237, 237); stroke-opacity: 1;"/></g><g class="point"><path d="M423.8,267V266.97H428.21V267Z" style="vector-effect: none; opacity: 1; stroke-width: 0.5px; fill: rgb(211, 211, 211); fill-opacity: 1; stroke: rgb(237, 237, 237); stroke-opacity: 1;"/></g><g class="point"><path d="M440.34,267V266.88H444.75V267Z" style="vector-effect: none; opacity: 1; stroke-width: 0.5px; fill: rgb(211, 211, 211); fill-opacity: 1; stroke: rgb(237, 237, 237); stroke-opacity: 1;"/></g><g class="point"><path d="M456.87,267V266.87H461.28V267Z" style="vector-effect: none; opacity: 1; stroke-width: 0.5px; fill: rgb(211, 211, 211); fill-opacity: 1; stroke: rgb(237, 237, 237); stroke-opacity: 1;"/></g><g class="point"><path d="M473.4,267V266.9H477.81V267Z" style="vector-effect: none; opacity: 1; stroke-width: 0.5px; fill: rgb(211, 211, 211); fill-opacity: 1; stroke: rgb(237, 237, 237); stroke-opacity: 1;"/></g><g class="point"><path d="M489.94,267V266.92H494.35V267Z" style="vector-effect: none; opacity: 1; stroke-width: 0.5px; fill: rgb(211, 211, 211); fill-opacity: 1; stroke: rgb(237, 237, 237); stroke-opacity: 1;"/></g></g></g></g></g><g class="overplot"/><path class="xlines-above crisp" d="M79,367.5H576" style="fill: none; stroke-width: 1px; stroke: rgb(0, 0, 0); stroke-opacity: 1;"/><path class="ylines-above crisp" d="M79.5,100V367" style="fill: none; stroke-width: 1px; stroke: rgb(0, 0, 0); stroke-opacity: 1;"/><g class="overlines-above"/><g class="xaxislayer-above"><path class="xtick ticks crisp" d="M0,368v5" transform="translate(88.27,0)" style="stroke: rgb(51, 51, 51); stroke-opacity: 1; stroke-width: 1px;"/><path class="xtick ticks crisp" d="M0,368v5" transform="translate(104.8,0)" style="stroke: rgb(51, 51, 51); stroke-opacity: 1; stroke-width: 1px;"/><path class="xtick ticks crisp" d="M0,368v5" transform="translate(121.33,0)" style="stroke: rgb(51, 51, 51); stroke-opacity: 1; stroke-width: 1px;"/><path class="xtick ticks crisp" d="M0,368v5" transform="translate(137.87,0)" style="stroke: rgb(51, 51, 51); stroke-opacity: 1; stroke-width: 1px;"/><path class="xtick ticks crisp" d="M0,368v5" transform="translate(154.4,0)" style="stroke: rgb(51, 51, 51); stroke-opacity: 1; stroke-width: 1px;"/><path class="xtick ticks crisp" d="M0,368v5" transform="translate(170.93,0)" style="stroke: rgb(51, 51, 51); stroke-opacity: 1; stroke-width: 1px;"/><path class="xtick ticks crisp" d="M0,368v5" transform="translate(187.47,0)" style="stroke: rgb(51, 51, 51); stroke-opacity: 1; stroke-width: 1px;"/><path class="xtick ticks crisp" d="M0,368v5" transform="translate(204,0)" style="stroke: rgb(51, 51, 51); stroke-opacity: 1; stroke-width: 1px;"/><path class="xtick ticks crisp" d="M0,368v5" transform="translate(220.53,0)" style="stroke: rgb(51, 51, 51); stroke-opacity: 1; stroke-width: 1px;"/><path class="xtick ticks crisp" d="M0,368v5" transform="translate(237.07,0)" style="stroke: rgb(51, 51, 51); stroke-opacity: 1; stroke-width: 1px;"/><path class="xtick ticks crisp" d="M0,368v5" transform="translate(253.6,0)" style="stroke: rgb(51, 51, 51); stroke-opacity: 1; stroke-width: 1px;"/><path class="xtick ticks crisp" d="M0,368v5" transform="translate(270.13,0)" style="stroke: rgb(51, 51, 51); stroke-opacity: 1; stroke-width: 1px;"/><path class="xtick ticks crisp" d="M0,368v5" transform="translate(286.66999999999996,0)" style="stroke: rgb(51, 51, 51); stroke-opacity: 1; stroke-width: 1px;"/><path class="xtick ticks crisp" d="M0,368v5" transform="translate(303.2,0)" style="stroke: rgb(51, 51, 51); stroke-opacity: 1; stroke-width: 1px;"/><path class="xtick ticks crisp" d="M0,368v5" transform="translate(319.73,0)" style="stroke: rgb(51, 51, 51); stroke-opacity: 1; stroke-width: 1px;"/><path class="xtick ticks crisp" d="M0,368v5" transform="translate(336.27,0)" style="stroke: rgb(51, 51, 51); stroke-opacity: 1; stroke-width: 1px;"/><path class="xtick ticks crisp" d="M0,368v5" transform="translate(352.8,0)" style="stroke: rgb(51, 51, 51); stroke-opacity: 1; stroke-width: 1px;"/><path class="xtick ticks crisp" d="M0,368v5" transform="translate(369.33,0)" style="stroke: rgb(51, 51, 51); stroke-opacity: 1; stroke-width: 1px;"/><path class="xtick ticks crisp" d="M0,368v5" transform="translate(385.87,0)" style="stroke: rgb(51, 51, 51); stroke-opacity: 1; stroke-width: 1px;"/><path class="xtick ticks crisp" d="M0,368v5" transform="translate(402.4,0)" style="stroke: rgb(51, 51, 51); stroke-opacity: 1; stroke-width: 1px;"/><path class="xtick ticks crisp" d="M0,368v5" transform="translate(418.93,0)" style="stroke: rgb(51, 51, 51); stroke-opacity: 1; stroke-width: 1px;"/><path class="xtick ticks crisp" d="M0,368v5" transform="translate(435.47,0)" style="stroke: rgb(51, 51, 51); stroke-opacity: 1; stroke-width: 1px;"/><path class="xtick ticks crisp" d="M0,368v5" transform="translate(452,0)" style="stroke: rgb(51, 51, 51); stroke-opacity: 1; stroke-width: 1px;"/><path class="xtick ticks crisp" d="M0,368v5" transform="translate(468.53,0)" style="stroke: rgb(51, 51, 51); stroke-opacity: 1; stroke-width: 1px;"/><path class="xtick ticks crisp" d="M0,368v5" transform="translate(485.07,0)" style="stroke: rgb(51, 51, 51); stroke-opacity: 1; stroke-width: 1px;"/><path class="xtick ticks crisp" d="M0,368v5" transform="translate(501.6,0)" style="stroke: rgb(51, 51, 51); stroke-opacity: 1; stroke-width: 1px;"/><path class="xtick ticks crisp" d="M0,368v5" transform="translate(518.13,0)" style="stroke: rgb(51, 51, 51); stroke-opacity: 1; stroke-width: 1px;"/><path class="xtick ticks crisp" d="M0,368v5" transform="translate(534.6700000000001,0)" style="stroke: rgb(51, 51, 51); stroke-opacity: 1; stroke-width: 1px;"/><path class="xtick ticks crisp" d="M0,368v5" transform="translate(551.2,0)" style="stroke: rgb(51, 51, 51); stroke-opacity: 1; stroke-width: 1px;"/><path class="xtick ticks crisp" d="M0,368v5" transform="translate(567.73,0)" style="stroke: rgb(51, 51, 51); stroke-opacity: 1; stroke-width: 1px;"/><g class="xtick"><text text-anchor="start" x="0" y="387.4" transform="translate(88.27,0) rotate(90,0,381.4)" style="font-family: 'Franklin Gothic'; font-size: 12px; fill: rgb(51, 51, 51); fill-opacity: 1; white-space: pre; opacity: 1;">gaming</text></g><g class="xtick"><text text-anchor="start" x="0" y="387.4" transform="translate(104.8,0) rotate(90,0,381.4)" style="font-family: 'Franklin Gothic'; font-size: 12px; fill: rgb(51, 51, 51); fill-opacity: 1; white-space: pre; opacity: 1;">minecraft</text></g><g class="xtick"><text text-anchor="start" x="0" y="387.4" transform="translate(121.33,0) rotate(90,0,381.4)" style="font-family: 'Franklin Gothic'; font-size: 12px; fill: rgb(51, 51, 51); fill-opacity: 1; white-space: pre; opacity: 1;">gameplay</text></g><g class="xtick"><text text-anchor="start" x="0" y="387.4" transform="translate(137.87,0) rotate(90,0,381.4)" style="font-family: 'Franklin Gothic'; font-size: 12px; fill: rgb(51, 51, 51); fill-opacity: 1; white-space: pre; opacity: 1;">free fire</text></g><g class="xtick"><text text-anchor="start" x="0" y="387.4" transform="translate(154.4,0) rotate(90,0,381.4)" style="font-family: 'Franklin Gothic'; font-size: 12px; fill: rgb(51, 51, 51); fill-opacity: 1; white-space: pre; opacity: 1;">funny</text></g><g class="xtick"><text text-anchor="start" x="0" y="387.4" transform="translate(170.93,0) rotate(90,0,381.4)" style="font-family: 'Franklin Gothic'; font-size: 12px; fill: rgb(51, 51, 51); fill-opacity: 1; white-space: pre; opacity: 1;">roblox</text></g><g class="xtick"><text text-anchor="start" x="0" y="387.4" transform="translate(187.47,0) rotate(90,0,381.4)" style="font-family: 'Franklin Gothic'; font-size: 12px; fill: rgb(51, 51, 51); fill-opacity: 1; white-space: pre; opacity: 1;">games</text></g><g class="xtick"><text text-anchor="start" x="0" y="387.4" transform="translate(204,0) rotate(90,0,381.4)" style="font-family: 'Franklin Gothic'; font-size: 12px; fill: rgb(51, 51, 51); fill-opacity: 1; white-space: pre; opacity: 1;">gta 5</text></g><g class="xtick"><text text-anchor="start" x="0" y="387.4" transform="translate(220.53,0) rotate(90,0,381.4)" style="font-family: 'Franklin Gothic'; font-size: 12px; fill: rgb(51, 51, 51); fill-opacity: 1; white-space: pre; opacity: 1;">gta</text></g><g class="xtick"><text text-anchor="start" x="0" y="387.4" transform="translate(237.07,0) rotate(90,0,381.4)" style="font-family: 'Franklin Gothic'; font-size: 12px; fill: rgb(51, 51, 51); fill-opacity: 1; white-space: pre; opacity: 1;">Gaming</text></g><g class="xtick"><text text-anchor="start" x="0" y="387.4" transform="translate(253.6,0) rotate(90,0,381.4)" style="font-family: 'Franklin Gothic'; font-size: 12px; fill: rgb(51, 51, 51); fill-opacity: 1; white-space: pre; opacity: 1;">game</text></g><g class="xtick"><text text-anchor="start" x="0" y="387.4" transform="translate(270.13,0) rotate(90,0,381.4)" style="font-family: 'Franklin Gothic'; font-size: 12px; fill: rgb(51, 51, 51); fill-opacity: 1; white-space: pre; opacity: 1;">garena free fire</text></g><g class="xtick"><text text-anchor="start" x="0" y="387.4" transform="translate(286.66999999999996,0) rotate(90,0,381.4)" style="font-family: 'Franklin Gothic'; font-size: 12px; fill: rgb(51, 51, 51); fill-opacity: 1; white-space: pre; opacity: 1;">gta v</text></g><g class="xtick"><text text-anchor="start" x="0" y="387.4" transform="translate(303.2,0) rotate(90,0,381.4)" style="font-family: 'Franklin Gothic'; font-size: 12px; fill: rgb(51, 51, 51); fill-opacity: 1; white-space: pre; opacity: 1;">ps5</text></g><g class="xtick"><text text-anchor="start" x="0" y="387.4" transform="translate(319.73,0) rotate(90,0,381.4)" style="font-family: 'Franklin Gothic'; font-size: 12px; fill: rgb(51, 51, 51); fill-opacity: 1; white-space: pre; opacity: 1;">fun</text></g><g class="xtick"><text text-anchor="start" x="0" y="387.4" transform="translate(336.27,0) rotate(90,0,381.4)" style="font-family: 'Franklin Gothic'; font-size: 12px; fill: rgb(51, 51, 51); fill-opacity: 1; white-space: pre; opacity: 1;">shorts</text></g><g class="xtick"><text text-anchor="start" x="0" y="387.4" transform="translate(352.8,0) rotate(90,0,381.4)" style="font-family: 'Franklin Gothic'; font-size: 12px; fill: rgb(51, 51, 51); fill-opacity: 1; white-space: pre; opacity: 1;">live</text></g><g class="xtick"><text text-anchor="start" x="0" y="387.4" transform="translate(369.33,0) rotate(90,0,381.4)" style="font-family: 'Franklin Gothic'; font-size: 12px; fill: rgb(51, 51, 51); fill-opacity: 1; white-space: pre; opacity: 1;">pc</text></g><g class="xtick"><text text-anchor="start" x="0" y="387.4" transform="translate(385.87,0) rotate(90,0,381.4)" style="font-family: 'Franklin Gothic'; font-size: 12px; fill: rgb(51, 51, 51); fill-opacity: 1; white-space: pre; opacity: 1;">total gaming</text></g><g class="xtick"><text text-anchor="start" x="0" y="387.4" transform="translate(402.4,0) rotate(90,0,381.4)" style="font-family: 'Franklin Gothic'; font-size: 12px; fill: rgb(51, 51, 51); fill-opacity: 1; white-space: pre; opacity: 1;">pubg</text></g><g class="xtick"><text text-anchor="start" x="0" y="387.4" transform="translate(418.93,0) rotate(90,0,381.4)" style="font-family: 'Franklin Gothic'; font-size: 12px; fill: rgb(51, 51, 51); fill-opacity: 1; white-space: pre; opacity: 1;">bgmi</text></g><g class="xtick"><text text-anchor="start" x="0" y="387.4" transform="translate(435.47,0) rotate(90,0,381.4)" style="font-family: 'Franklin Gothic'; font-size: 12px; fill: rgb(51, 51, 51); fill-opacity: 1; white-space: pre; opacity: 1;">pubg mobile</text></g><g class="xtick"><text text-anchor="start" x="0" y="387.4" transform="translate(452,0) rotate(90,0,381.4)" style="font-family: 'Franklin Gothic'; font-size: 12px; fill: rgb(51, 51, 51); fill-opacity: 1; white-space: pre; opacity: 1;">guide</text></g><g class="xtick"><text text-anchor="start" x="0" y="387.4" transform="translate(468.53,0) rotate(90,0,381.4)" style="font-family: 'Franklin Gothic'; font-size: 12px; fill: rgb(51, 51, 51); fill-opacity: 1; white-space: pre; opacity: 1;">video games</text></g><g class="xtick"><text text-anchor="start" x="0" y="387.4" transform="translate(485.07,0) rotate(90,0,381.4)" style="font-family: 'Franklin Gothic'; font-size: 12px; fill: rgb(51, 51, 51); fill-opacity: 1; white-space: pre; opacity: 1;">free fire live</text></g><g class="xtick"><text text-anchor="start" x="0" y="387.4" transform="translate(501.6,0) rotate(90,0,381.4)" style="font-family: 'Franklin Gothic'; font-size: 12px; fill: rgb(51, 51, 51); fill-opacity: 1; white-space: pre; opacity: 1;">funny moments</text></g><g class="xtick"><text text-anchor="start" x="0" y="387.4" transform="translate(518.13,0) rotate(90,0,381.4)" style="font-family: 'Franklin Gothic'; font-size: 12px; fill: rgb(51, 51, 51); fill-opacity: 1; white-space: pre; opacity: 1;">gamer</text></g><g class="xtick"><text text-anchor="start" x="0" y="387.4" transform="translate(534.6700000000001,0) rotate(90,0,381.4)" style="font-family: 'Franklin Gothic'; font-size: 12px; fill: rgb(51, 51, 51); fill-opacity: 1; white-space: pre; opacity: 1;">techno gamerz</text></g><g class="xtick"><text text-anchor="start" x="0" y="387.4" transform="translate(551.2,0) rotate(90,0,381.4)" style="font-family: 'Franklin Gothic'; font-size: 12px; fill: rgb(51, 51, 51); fill-opacity: 1; white-space: pre; opacity: 1;">how to</text></g><g class="xtick"><text text-anchor="start" x="0" y="387.4" transform="translate(567.73,0) rotate(90,0,381.4)" style="font-family: 'Franklin Gothic'; font-size: 12px; fill: rgb(51, 51, 51); fill-opacity: 1; white-space: pre; opacity: 1;">Gameplay</text></g></g><g class="yaxislayer-above"><path class="ytick ticks crisp" d="M79,0h-5" transform="translate(0,367)" style="stroke: rgb(51, 51, 51); stroke-opacity: 1; stroke-width: 1px;"/><path class="ytick ticks crisp" d="M79,0h-5" transform="translate(0,321.40999999999997)" style="stroke: rgb(51, 51, 51); stroke-opacity: 1; stroke-width: 1px;"/><path class="ytick ticks crisp" d="M79,0h-5" transform="translate(0,275.82)" style="stroke: rgb(51, 51, 51); stroke-opacity: 1; stroke-width: 1px;"/><path class="ytick ticks crisp" d="M79,0h-5" transform="translate(0,230.23)" style="stroke: rgb(51, 51, 51); stroke-opacity: 1; stroke-width: 1px;"/><path class="ytick ticks crisp" d="M79,0h-5" transform="translate(0,184.64)" style="stroke: rgb(51, 51, 51); stroke-opacity: 1; stroke-width: 1px;"/><path class="ytick ticks crisp" d="M79,0h-5" transform="translate(0,139.05)" style="stroke: rgb(51, 51, 51); stroke-opacity: 1; stroke-width: 1px;"/><g class="ytick"><text text-anchor="end" x="71.6" y="4.199999999999999" transform="translate(0,367)" style="font-family: 'Franklin Gothic'; font-size: 12px; fill: rgb(51, 51, 51); fill-opacity: 1; white-space: pre; opacity: 1;">0</text></g><g class="ytick"><text text-anchor="end" x="71.6" y="4.199999999999999" style="font-family: 'Franklin Gothic'; font-size: 12px; fill: rgb(51, 51, 51); fill-opacity: 1; white-space: pre; opacity: 1;" transform="translate(0,321.40999999999997)">20M</text></g><g class="ytick"><text text-anchor="end" x="71.6" y="4.199999999999999" style="font-family: 'Franklin Gothic'; font-size: 12px; fill: rgb(51, 51, 51); fill-opacity: 1; white-space: pre; opacity: 1;" transform="translate(0,275.82)">40M</text></g><g class="ytick"><text text-anchor="end" x="71.6" y="4.199999999999999" style="font-family: 'Franklin Gothic'; font-size: 12px; fill: rgb(51, 51, 51); fill-opacity: 1; white-space: pre; opacity: 1;" transform="translate(0,230.23)">60M</text></g><g class="ytick"><text text-anchor="end" x="71.6" y="4.199999999999999" style="font-family: 'Franklin Gothic'; font-size: 12px; fill: rgb(51, 51, 51); fill-opacity: 1; white-space: pre; opacity: 1;" transform="translate(0,184.64)">80M</text></g><g class="ytick"><text text-anchor="end" x="71.6" y="4.199999999999999" style="font-family: 'Franklin Gothic'; font-size: 12px; fill: rgb(51, 51, 51); fill-opacity: 1; white-space: pre; opacity: 1;" transform="translate(0,139.05)">100M</text></g></g><g class="overaxes-above"/></g></g><g class="polarlayer"/><g class="smithlayer"/><g class="ternarylayer"/><g class="geolayer"/><g class="funnelarealayer"/><g class="pielayer"/><g class="iciclelayer"/><g class="treemaplayer"/><g class="sunburstlayer"/><g class="glimages"/><defs id="topdefs-18f98a"><g class="clips"/><clipPath id="legend18f98a"><rect width="102" height="67" x="0" y="0"/></clipPath></defs><g class="layer-above"><g class="imagelayer"/><g class="shapelayer"/></g><g class="infolayer"><g class="legend" pointer-events="all" transform="translate(585.9200000000001,100)"><rect class="bg" shape-rendering="crispEdges" width="102" height="67" x="0" y="0" style="stroke: rgb(68, 68, 68); stroke-opacity: 1; fill: rgb(255, 255, 255); fill-opacity: 1; stroke-width: 0px;"/><g class="scrollbox" transform="" clip-path="url(#legend18f98a)"><g class="groups"><g class="traces" transform="translate(0,14.5)" style="opacity: 1;"><text class="legendtext" text-anchor="start" x="40" y="4.680000000000001" style="font-family: 'Franklin Gothic'; font-size: 12px; fill: rgb(51, 51, 51); fill-opacity: 1; white-space: pre;">Views</text><g class="layers" style="opacity: 1;"><g class="legendfill"/><g class="legendlines"/><g class="legendsymbols"><g class="legendpoints"><path class="legendundefined" d="M6,6H-6V-6H6Z" transform="translate(20,0)" style="stroke-width: 0.5px; fill: rgb(46, 46, 46); fill-opacity: 1; stroke: rgb(237, 237, 237); stroke-opacity: 1;"/></g></g></g><rect class="legendtoggle" x="0" y="-9.5" width="96.84375" height="19" style="fill: rgb(0, 0, 0); fill-opacity: 0;"/></g><g class="traces" transform="translate(0,33.5)" style="opacity: 1;"><text class="legendtext" text-anchor="start" x="40" y="4.680000000000001" style="font-family: 'Franklin Gothic'; font-size: 12px; fill: rgb(51, 51, 51); fill-opacity: 1; white-space: pre;">Likes</text><g class="layers" style="opacity: 1;"><g class="legendfill"/><g class="legendlines"/><g class="legendsymbols"><g class="legendpoints"><path class="legendundefined" d="M6,6H-6V-6H6Z" transform="translate(20,0)" style="stroke-width: 0.5px; fill: rgb(252, 3, 3); fill-opacity: 1; stroke: rgb(237, 237, 237); stroke-opacity: 1;"/></g></g></g><rect class="legendtoggle" x="0" y="-9.5" width="96.84375" height="19" style="fill: rgb(0, 0, 0); fill-opacity: 0;"/></g><g class="traces" transform="translate(0,52.5)" style="opacity: 1;"><text class="legendtext" text-anchor="start" x="40" y="4.680000000000001" style="font-family: 'Franklin Gothic'; font-size: 12px; fill: rgb(51, 51, 51); fill-opacity: 1; white-space: pre;">Comments</text><g class="layers" style="opacity: 1;"><g class="legendfill"/><g class="legendlines"/><g class="legendsymbols"><g class="legendpoints"><path class="legendundefined" d="M6,6H-6V-6H6Z" transform="translate(20,0)" style="stroke-width: 0.5px; fill: rgb(211, 211, 211); fill-opacity: 1; stroke: rgb(237, 237, 237); stroke-opacity: 1;"/></g></g></g><rect class="legendtoggle" x="0" y="-9.5" width="96.84375" height="19" style="fill: rgb(0, 0, 0); fill-opacity: 0;"/></g></g></g><rect class="scrollbar" rx="20" ry="3" width="0" height="0" x="0" y="0" style="fill: rgb(128, 139, 164); fill-opacity: 1;"/></g><g class="g-gtitle"><text class="gtitle" x="350" y="50" text-anchor="middle" dy="0em" style="font-family: 'Franklin Gothic'; font-size: 17px; fill: rgb(51, 51, 51); opacity: 1; font-weight: normal; white-space: pre;">Views, Likes &amp; comments per Tag</text></g><g class="g-xtitle"><text class="xtitle" x="328" y="487.153515625" text-anchor="middle" style="font-family: 'Franklin Gothic'; font-size: 14px; fill: rgb(51, 51, 51); opacity: 1; font-weight: normal; white-space: pre;">Tags</text></g><g class="g-ytitle"><text class="ytitle" transform="rotate(-90,16.575000000000003,233.5)" x="16.575000000000003" y="233.5" text-anchor="middle" style="font-family: 'Franklin Gothic'; font-size: 14px; fill: rgb(51, 51, 51); opacity: 1; font-weight: normal; white-space: pre;">Views, Likes &amp; Comments</text></g><g class="annotation" data-index="0" style="opacity: 1;"><g class="annotation-text-g" transform="rotate(0,326.27,223.02)"><g class="cursor-pointer" transform="translate(189,206)"><rect class="bg" x="0.5" y="0.5" width="274" height="33" style="stroke-width: 1px; stroke: rgb(0, 0, 0); stroke-opacity: 0; fill: rgb(0, 0, 0); fill-opacity: 0;"/><text class="annotation-text" text-anchor="middle" x="138.203125" y="13" style="font-family: 'Franklin Gothic'; font-size: 12px; fill: rgb(51, 51, 51); fill-opacity: 1; white-space: pre;"><tspan class="line" dy="0em" x="138.203125" y="13">We can find that the shorts in gaming now are more </tspan><tspan class="line" dy="1.3em" x="138.203125" y="13">popular now than lives.</tspan></text></g></g><g class="annotation-arrow-g" style="opacity: 1;"><path d="M331.77,239.52L336.27,253.02" style="stroke-width: 2px; stroke: rgb(68, 68, 68); stroke-opacity: 1; stroke-dasharray: 0px, 0px, 13.0302px, 14.2302px;"/><path d="M-2.4,-3V3L0.6,0Z" transform="translate(335.8905029296875,251.881591796875)rotate(71.56781601708516)scale(2)" style="fill: rgb(68, 68, 68); stroke-width: 0;"/></g></g><g class="annotation" data-index="1" style="opacity: 1;"><g class="annotation-text-g" transform="rotate(0,170.93,139.05)"><g class="cursor-pointer" transform="translate(81,122)"><rect class="bg" x="0.5" y="0.5" width="179" height="33" style="stroke-width: 1px; stroke: rgb(0, 0, 0); stroke-opacity: 0; fill: rgb(0, 0, 0); fill-opacity: 0;"/><text class="annotation-text" text-anchor="middle" x="89.734375" y="13" style="font-family: 'Franklin Gothic'; font-size: 12px; fill: rgb(51, 51, 51); fill-opacity: 1; white-space: pre;"><tspan class="line" dy="0em" x="89.734375" y="13">Looks like people looks for game</tspan><tspan class="line" dy="1.3em" x="89.734375" y="13"> play videosmore than funny ones.</tspan></text></g></g></g></g></svg>